<svg width="16" height="16" viewBox="0 0 16 16" fill="none" xmlns="http://www.w3.org/2000/svg">
  <path d="M8.5 7V7.5H9H15C15.1326 7.5 15.2598 7.55268 15.3536 7.64645C15.4473 7.74021 15.5 7.86739 15.5 8C15.5 8.13261 15.4473 8.25979 15.3536 8.35355C15.2598 8.44732 15.1326 8.5 15 8.5H9H8.5V9V15C8.5 15.1326 8.44732 15.2598 8.35355 15.3536C8.25979 15.4473 8.13261 15.5 8 15.5C7.86739 15.5 7.74021 15.4473 7.64645 15.3536C7.55268 15.2598 7.5 15.1326 7.5 15V9V8.5H7H1C0.867391 8.5 0.740213 8.44732 0.646446 8.35355C0.552679 8.25979 0.5 8.13261 0.5 8C0.5 7.86739 0.552679 7.74021 0.646446 7.64645C0.740213 7.55268 0.867391 7.5 1 7.5H7H7.5V7V1C7.5 0.867391 7.55268 0.740213 7.64645 0.646446C7.74021 0.552679 7.86739 0.5 8 0.5C8.13261 0.5 8.25979 0.552679 8.35355 0.646446C8.44732 0.740213 8.5 0.867391 8.5 1V7Z" fill="currentColor" stroke="currentColor"/>
</svg>
