<svg width="16" height="16" viewBox="0 0 16 16" fill="none" xmlns="http://www.w3.org/2000/svg">
<path d="M7.70596 2.06918e-06C8.25022 -0.000522118 8.78925 0.0985534 9.29224 0.291567C9.79523 0.48458 10.2523 0.767743 10.6374 1.12487C11.0224 1.482 11.3279 1.90609 11.5363 2.37289C11.7447 2.83969 11.852 3.34005 11.852 3.84537C11.8524 4.35216 11.7452 4.85406 11.5365 5.32235C11.3278 5.79065 11.0217 6.21614 10.6357 6.5745C10.2498 6.93286 9.79148 7.21705 9.2871 7.41081C8.78272 7.60457 8.24214 7.7041 7.69629 7.7037C6.59727 7.69844 5.54511 7.2898 4.76938 6.56696C3.99366 5.84413 3.55735 4.86577 3.55566 3.84537C3.55851 2.82494 3.99695 1.84718 4.77491 1.12638C5.55288 0.405576 6.6069 0.000526555 7.70596 2.06918e-06ZM10.6672 3.85434C10.6687 3.49282 10.5931 3.13459 10.4449 2.80027C10.2967 2.46594 10.0788 2.16211 9.80369 1.90624C9.5286 1.65036 9.20175 1.4475 8.84193 1.3093C8.48212 1.1711 8.09643 1.1003 7.70704 1.10096C7.3176 1.10069 6.93193 1.1717 6.57207 1.30992C6.21222 1.44813 5.88523 1.65085 5.60981 1.90647C5.33439 2.16209 5.11594 2.46561 4.96694 2.79967C4.81794 3.13373 4.74132 3.49178 4.74146 3.85335C4.74512 4.58045 5.0574 5.2769 5.61057 5.7916C6.16373 6.30631 6.91316 6.59777 7.69629 6.60275C8.48272 6.60381 9.23743 6.3149 9.79453 5.79953C10.3516 5.28416 10.6655 4.58451 10.6672 3.85434Z" fill="currentColor"/>
<path d="M1.05849 14.817H1.29998C3.42663 14.817 5.55295 14.817 7.67895 14.817C7.81126 14.8181 7.94131 14.855 8.05773 14.9243C8.14889 14.9871 8.2195 15.0803 8.25926 15.1904C8.29902 15.3004 8.30585 15.4216 8.27877 15.5363C8.25255 15.6572 8.19294 15.7661 8.10817 15.848C8.0234 15.9299 7.91765 15.9808 7.80553 15.9936C7.744 15.9992 7.68223 16.001 7.62052 15.999H0.67192C0.196735 15.999 -0.000933994 15.7843 0.00198722 15.2561C0.00198722 14.5593 -0.0223562 13.8604 0.0993611 13.1712C0.457697 11.0659 2.08968 9.30093 4.00989 8.96919C4.28599 8.92125 4.5649 8.89577 4.84439 8.89297C5.79476 8.8833 6.7461 8.89297 7.69745 8.89297C8.05384 8.89297 8.29727 9.1356 8.29629 9.48451C8.29532 9.83342 8.04994 10.0761 7.69355 10.0771H4.88626C2.97189 10.0803 1.42072 11.5265 1.12179 13.6124C1.06726 13.9989 1.07894 14.3972 1.05849 14.817Z" fill="currentColor"/>
<path d="M13.0381 10.0709C12.2438 10.0709 11.4484 10.0709 10.6541 10.0709C10.512 10.0719 10.3746 10.0187 10.2682 9.92166C10.1618 9.8246 10.0938 9.69044 10.0774 9.54492C10.0628 9.40249 10.0987 9.25944 10.1785 9.14222C10.2584 9.02501 10.3766 8.94156 10.5115 8.90733C10.5636 8.89422 10.6172 8.88809 10.6708 8.88908C12.2483 8.88908 13.8258 8.88908 15.4033 8.88908C15.5483 8.88352 15.69 8.93461 15.8 9.03213C15.91 9.12965 15.9803 9.26641 15.9967 9.41504C16.0123 9.56073 15.9749 9.7072 15.8918 9.82615C15.8088 9.9451 15.6859 10.0281 15.547 10.0591C15.4761 10.0713 15.4043 10.0759 15.3325 10.073C14.5684 10.073 13.8036 10.0723 13.0381 10.0709Z" fill="currentColor"/>
<path d="M13.033 11.8523H15.4162C15.5252 11.8479 15.6329 11.8773 15.7256 11.9367C15.8184 11.9961 15.8918 12.0827 15.9365 12.1854C15.9863 12.2815 16.0076 12.3907 15.9978 12.4992C15.988 12.6077 15.9475 12.7109 15.8813 12.7959C15.8292 12.8722 15.7597 12.9341 15.6789 12.976C15.5982 13.018 15.5086 13.0388 15.4182 13.0366C13.8295 13.0366 12.2407 13.0366 10.6519 13.0366C10.5753 13.0375 10.4993 13.0224 10.4284 12.9924C10.3576 12.9623 10.2933 12.9178 10.2394 12.8616C10.1855 12.8053 10.1431 12.7384 10.1148 12.6649C10.0864 12.5914 10.0727 12.5128 10.0744 12.4337C10.0755 12.3548 10.092 12.277 10.1228 12.2048C10.1537 12.1326 10.1982 12.0675 10.2538 12.0134C10.3094 11.9593 10.3749 11.9173 10.4465 11.8898C10.5181 11.8623 10.5943 11.8499 10.6707 11.8533C11.4553 11.8501 12.2442 11.8523 13.033 11.8523Z" fill="currentColor"/>
<path d="M13.0556 14.8187C13.8447 14.8187 14.6327 14.8187 15.4217 14.8187C15.5512 14.8164 15.6776 14.8599 15.7799 14.9418C15.8822 15.0238 15.9541 15.1394 15.9838 15.2694C16.0135 15.3931 16.0025 15.5234 15.9526 15.6399C15.9027 15.7564 15.8166 15.8526 15.708 15.9133C15.6073 15.9662 15.4962 15.9945 15.3832 15.9959C13.8176 16.0009 12.252 16.0009 10.6864 15.9959C10.607 16.0008 10.5274 15.9887 10.4527 15.9604C10.3781 15.9321 10.3099 15.8883 10.2524 15.8316C10.1949 15.7748 10.1495 15.7065 10.1188 15.6308C10.0882 15.5551 10.073 15.4738 10.0743 15.3918C10.0743 15.0548 10.3314 14.8155 10.6895 14.8145C11.4785 14.8177 12.2666 14.8187 13.0556 14.8187Z" fill="currentColor"/>
</svg>
