<svg width="16" height="16" viewBox="0 0 16 16" fill="none" xmlns="http://www.w3.org/2000/svg">
<g clip-path="url(#clip0_6565_12843)">
<path d="M0 7.47413C0.0280427 7.33433 0.0708562 7.19783 0.127739 7.06687C0.246446 6.82878 0.396057 6.60699 0.572774 6.40712C1.75128 5.21793 2.94214 4.04911 4.13712 2.87215C4.34386 2.63859 4.62133 2.4772 4.92829 2.41195C5.10659 2.38194 5.28993 2.41075 5.45003 2.49391C5.61014 2.57708 5.73811 2.70999 5.81422 2.87215C5.92062 3.11903 5.97124 3.38588 5.96256 3.65408C5.96256 4.00432 5.96256 4.35456 5.96256 4.70887C6.26749 4.73738 6.55594 4.76182 6.84438 4.79847C8.78287 5.03281 10.6145 5.8052 12.127 7.02615C14.1524 8.62179 15.5074 10.9027 15.9304 13.4282C15.9551 13.5667 15.9716 13.7051 15.9922 13.8355C16.0117 13.9424 15.9943 14.0528 15.9428 14.1488C15.8912 14.2448 15.8085 14.3209 15.7079 14.3649C15.6104 14.4055 15.5017 14.4115 15.4002 14.3818C15.2988 14.3521 15.2109 14.2885 15.1516 14.202C14.7444 13.6671 14.2832 13.1746 13.7753 12.7318C12.5691 11.691 11.109 10.9793 9.53928 10.667C8.40444 10.4336 7.23459 10.4198 6.09442 10.6263C5.97493 10.6467 5.96256 10.6955 5.96256 10.7973C5.96256 11.2372 5.96256 11.6811 5.93784 12.1209C5.93974 12.3243 5.87434 12.5227 5.7516 12.6859C5.62886 12.8491 5.4555 12.9682 5.25794 13.025C5.09931 13.0558 4.93555 13.049 4.7801 13.0051C4.62466 12.9612 4.48196 12.8815 4.36375 12.7725C4.26182 12.6921 4.16546 12.605 4.07531 12.5119C2.9339 11.3879 1.80072 10.2598 0.65518 9.13981C0.315819 8.81962 0.0866641 8.40226 0 7.94654V7.47413ZM5.00246 12.0883C5.00246 11.9499 5.02306 11.8562 5.02306 11.7585C5.02306 11.2901 5.02306 10.8218 5.02306 10.3534C5.0126 10.2866 5.01642 10.2183 5.03426 10.153C5.0521 10.0877 5.08358 10.0268 5.12666 9.97428C5.16974 9.92173 5.22347 9.87868 5.28441 9.84788C5.34534 9.81709 5.41212 9.79924 5.48045 9.79548C5.91312 9.72218 6.34166 9.64479 6.77433 9.6C7.91182 9.48125 9.06164 9.564 10.1697 9.84435C11.794 10.2399 13.2917 11.0326 14.5252 12.1494L14.6365 12.239C14.6497 12.1952 14.6497 12.1485 14.6365 12.1046C14.3535 11.2797 13.9569 10.4972 13.458 9.77919C12.703 8.67901 11.7198 7.75025 10.5736 7.05465C9.07135 6.1275 7.33801 5.63119 5.56698 5.62112C5.49361 5.63074 5.41899 5.62339 5.34898 5.59964C5.27897 5.5759 5.21551 5.53641 5.16357 5.48429C5.11164 5.43218 5.07266 5.36885 5.0497 5.29931C5.02675 5.22977 5.02045 5.1559 5.03131 5.08354C5.03131 4.60705 5.03131 4.12649 5.03131 3.65001C5.03131 3.55634 5.03131 3.46267 5.00658 3.33642C4.90769 3.42602 4.83351 3.48303 4.76758 3.54819L1.28976 6.9895C1.18047 7.07693 1.09233 7.18739 1.03178 7.31282C0.971233 7.43824 0.939806 7.57545 0.939806 7.71442C0.939806 7.85338 0.971233 7.99058 1.03178 8.116C1.09233 8.24143 1.18047 8.3519 1.28976 8.43933L4.76758 11.8766C4.82939 11.9417 4.90356 11.9987 5.00246 12.0883Z" fill="currentColor"/>
</g>
<defs>
<clipPath id="clip0_6565_12843">
<rect width="16" height="16" fill="white"/>
</clipPath>
</defs>
</svg>
