<svg width="22" height="22" viewBox="0 0 22 22" fill="none" xmlns="http://www.w3.org/2000/svg">
<g clip-path="url(#clip0_3041_35692)">
<path fill-rule="evenodd" clip-rule="evenodd" d="M0 0H1.375V20.625H22V22H0V0ZM20.3734 4.28038C20.4433 4.33759 20.5013 4.40802 20.5439 4.48764C20.5866 4.56727 20.6132 4.65453 20.6221 4.74443C20.6311 4.83433 20.6222 4.92511 20.596 5.01158C20.5699 5.09805 20.5269 5.17851 20.4696 5.24837L14.2821 12.8109C14.2213 12.8851 14.1456 12.9458 14.0599 12.989C13.9743 13.0322 13.8805 13.057 13.7846 13.0618C13.6888 13.0666 13.593 13.0513 13.5035 13.0168C13.4139 12.9824 13.3325 12.9295 13.2646 12.8617L9.7075 9.30463L4.6805 16.2167C4.57053 16.3566 4.41064 16.4483 4.23443 16.4728C4.05822 16.4972 3.8794 16.4523 3.73556 16.3476C3.59172 16.243 3.49406 16.0866 3.46309 15.9114C3.43212 15.7363 3.47026 15.5559 3.5695 15.4083L9.0695 7.84575C9.12788 7.76533 9.203 7.69853 9.28968 7.64993C9.37636 7.60134 9.47255 7.57212 9.57161 7.56427C9.67067 7.55643 9.77026 7.57016 9.86351 7.60451C9.95675 7.63886 10.0414 7.69302 10.1117 7.76325L13.6991 11.352L19.4054 4.37663C19.4626 4.30671 19.533 4.24875 19.6126 4.20607C19.6923 4.16338 19.7795 4.13681 19.8694 4.12787C19.9593 4.11894 20.0501 4.1278 20.1366 4.15397C20.223 4.18014 20.3035 4.22309 20.3734 4.28038Z" fill="currentColor"/>
</g>
<defs>
<clipPath id="clip0_3041_35692">
<rect width="22" height="22" fill="white"/>
</clipPath>
</defs>
</svg>
