<svg width="16" height="16" viewBox="0 0 16 16" fill="none" xmlns="http://www.w3.org/2000/svg">
<g clip-path="url(#clip0_3910_20564)">
<path d="M7.88727 14.2323C7.90063 14.2494 7.91771 14.2632 7.9372 14.2727C7.95669 14.2822 7.97809 14.2871 7.99977 14.2871C8.02145 14.2871 8.04285 14.2822 8.06234 14.2727C8.08183 14.2632 8.09891 14.2494 8.11227 14.2323L10.1123 11.7019C10.1288 11.6809 10.139 11.6556 10.1418 11.629C10.1446 11.6024 10.1399 11.5756 10.1281 11.5515C10.1164 11.5275 10.0981 11.5073 10.0754 11.4931C10.0527 11.479 10.0265 11.4715 9.99977 11.4716L8.68013 11.4716L8.68013 7.14301C8.68013 7.06444 8.61584 7.00015 8.53727 7.00015L7.46584 7.00015C7.38727 7.00015 7.32298 7.06444 7.32298 7.14301L7.32298 11.4698L5.99977 11.4698C5.88013 11.4698 5.81406 11.6073 5.88727 11.7002L7.88727 14.2323Z" fill="currentColor"/>
<path d="M13.3464 5.40592C12.5286 3.24877 10.4446 1.71484 8.00357 1.71484C5.5625 1.71484 3.47857 3.24699 2.66071 5.40413C1.13036 5.80592 0 7.20056 0 8.8577C0 10.8309 1.59821 12.4291 3.56964 12.4291H4.28571C4.36429 12.4291 4.42857 12.3648 4.42857 12.2863V11.2148C4.42857 11.1363 4.36429 11.072 4.28571 11.072H3.56964C2.96786 11.072 2.40179 10.8327 1.98036 10.3988C1.56071 9.96663 1.3375 9.38449 1.35714 8.78092C1.37321 8.30949 1.53393 7.86663 1.825 7.49342C2.12321 7.11306 2.54107 6.83627 3.00536 6.71306L3.68214 6.53627L3.93036 5.8827C4.08393 5.47556 4.29821 5.0952 4.56786 4.75056C4.83406 4.40896 5.14938 4.10868 5.50357 3.85949C6.2375 3.34342 7.10179 3.0702 8.00357 3.0702C8.90536 3.0702 9.76964 3.34342 10.5036 3.85949C10.8589 4.10949 11.1732 4.40949 11.4393 4.75056C11.7089 5.0952 11.9232 5.47734 12.0768 5.8827L12.3232 6.53449L12.9982 6.71306C13.9661 6.97377 14.6429 7.85413 14.6429 8.8577C14.6429 9.44877 14.4125 10.0059 13.9946 10.4238C13.7897 10.6299 13.5459 10.7933 13.2774 10.9046C13.0089 11.0159 12.721 11.0728 12.4304 11.072H11.7143C11.6357 11.072 11.5714 11.1363 11.5714 11.2148V12.2863C11.5714 12.3648 11.6357 12.4291 11.7143 12.4291H12.4304C14.4018 12.4291 16 10.8309 16 8.8577C16 7.20234 14.8732 5.80949 13.3464 5.40592Z" fill="currentColor"/>
</g>
<defs>
<clipPath id="clip0_3910_20564">
<rect width="16" height="16" fill="white"/>
</clipPath>
</defs>
</svg>
