<svg width="14" height="10" viewBox="0 0 14 10" fill="none" xmlns="http://www.w3.org/2000/svg">
<path d="M7.00183 0L7.22183 0.401517C7.94662 1.73515 8.67129 3.06878 9.39585 4.40241C9.64079 4.85255 9.77695 4.89315 10.1643 4.64243C11.3395 3.8843 12.5149 3.12678 13.6905 2.36984C13.7726 2.31675 13.8322 2.28641 13.9195 2.37876C14.0068 2.47111 14.0106 2.54829 13.9888 2.66652C13.5793 5.02863 13.1719 7.39163 12.7665 9.75552C12.7319 9.94959 12.6778 10 12.5295 10C9.61931 9.99435 6.70908 9.99301 3.79884 9.99598C3.01377 9.99598 2.22836 9.99241 1.44294 9.99911C1.31822 9.99911 1.26625 9.96029 1.2375 9.79032C0.833066 7.41869 0.424015 5.0484 0.0103462 2.67946C-0.011827 2.55231 -0.0031654 2.4671 0.0841416 2.37296C0.171449 2.27883 0.23693 2.323 0.314536 2.37296C1.50611 3.1409 2.69769 3.9081 3.88927 4.67455C4.21182 4.882 4.36877 4.83025 4.57699 4.44702C5.34173 3.04082 6.10624 1.63432 6.87053 0.227527C6.90864 0.162838 6.9464 0.0977024 7.00183 0Z" fill="currentColor"/>
</svg>
