<svg width="22" height="22" viewBox="0 0 22 22" fill="none" xmlns="http://www.w3.org/2000/svg">
<path d="M3.79029 3C4.15529 3.05424 4.4043 3.19951 4.54387 3.48444C4.69328 3.78932 4.6343 4.07425 4.40102 4.32738C4.04127 4.71892 3.64941 5.08864 3.32766 5.507C2.06952 7.14527 1.46739 9.15708 1.62969 11.1802C1.79199 13.2034 2.70805 15.1049 4.21295 16.5425C4.45148 16.7707 4.66379 17.0014 4.59302 17.353C4.53339 17.6498 4.35843 17.8618 4.04979 17.9591C3.74115 18.0563 3.46986 17.9759 3.24117 17.7645C1.92404 16.55 0.961426 15.1166 0.462098 13.4382C-0.566045 9.98293 0.125282 6.8456 2.49807 4.05056C2.73059 3.77749 2.98494 3.52194 3.25886 3.28618C3.40368 3.16148 3.61009 3.09414 3.79029 3Z" fill="currentColor"/>
<path d="M22.0007 10.3947C21.9352 13.3406 20.8867 15.7522 18.7728 17.733C18.4104 18.0722 17.9412 18.0871 17.6182 17.7767C17.2951 17.4662 17.3128 17.0135 17.6732 16.6762C19.067 15.3707 19.9667 13.8132 20.278 11.9733C20.7537 9.15585 19.9379 6.70123 17.9058 4.60884C17.8056 4.50597 17.6935 4.41369 17.6024 4.30396C17.4756 4.15842 17.4134 3.97155 17.4291 3.78306C17.4447 3.59457 17.537 3.41932 17.6863 3.29455C17.8308 3.16462 18.0228 3.09332 18.2215 3.09576C18.4203 3.09821 18.6103 3.1742 18.7512 3.30765C20.508 4.93554 21.5637 6.90323 21.8893 9.22319C21.9503 9.65401 21.9719 10.0898 22.0007 10.3947Z" fill="currentColor"/>
<path d="M17.2762 10.5183C17.2343 12.4467 16.522 14.1082 15.0816 15.4768C14.7114 15.829 14.2363 15.8509 13.9067 15.5341C13.5771 15.2174 13.6118 14.7685 13.9755 14.4156C16.2821 12.1817 16.2821 8.8804 13.9755 6.63588C13.6118 6.28175 13.5824 5.82536 13.91 5.51861C14.2376 5.21186 14.714 5.22683 15.0843 5.57784C16.5174 6.94014 17.2284 8.59422 17.2762 10.5183Z" fill="currentColor"/>
<path d="M4.71484 10.3987C4.7522 8.61991 5.45335 6.96957 6.8727 5.6079C7.23311 5.26125 7.71802 5.24566 8.04501 5.56301C8.35496 5.86477 8.32744 6.3224 7.97489 6.66469C6.86549 7.7433 6.28884 9.03764 6.29408 10.5458C6.29867 12.0191 6.86222 13.2891 7.93623 14.349C7.98145 14.3939 8.02863 14.4363 8.07253 14.4825C8.37724 14.8017 8.37658 15.2406 8.07253 15.5318C7.76848 15.8229 7.30322 15.8323 6.97165 15.5318C6.44248 15.0554 5.99398 14.5039 5.64207 13.897C5.02873 12.8533 4.7286 11.7292 4.71484 10.3987Z" fill="currentColor"/>
<path d="M12.5639 10.5221C12.5639 10.9189 12.3982 11.2995 12.1033 11.5801C11.8084 11.8608 11.4084 12.0184 10.9913 12.0184C10.5752 12.0161 10.177 11.857 9.88396 11.576C9.59091 11.2949 9.42686 10.9148 9.42774 10.519C9.43064 10.1263 9.59565 9.75047 9.88716 9.47253C10.1787 9.19458 10.5733 9.0368 10.986 9.03321C11.4027 9.03189 11.8028 9.18792 12.0987 9.46707C12.3945 9.74621 12.5619 10.1256 12.5639 10.5221Z" fill="currentColor"/>
</svg>
