<svg version="1.1" id="Layer_1" xmlns="http://www.w3.org/2000/svg" xmlns:xlink="http://www.w3.org/1999/xlink" x="0px" y="0px"
	 width="100%" viewBox="0 0 520 160" enable-background="new 0 0 520 160" xml:space="preserve">

<path fill="currentColor" opacity="1.000000" stroke="none" 
	d="
M196.049866,76.113129 
	C196.023849,77.444557 196.235138,78.839760 195.899612,80.087997 
	C195.611282,81.160698 194.890320,82.594063 194.013779,82.912186 
	C192.892502,83.319130 191.166779,83.187286 190.144272,82.562752 
	C181.373047,77.205437 172.694931,71.695320 164.003113,66.208488 
	C157.235107,61.936089 150.507294,57.599735 143.724686,53.350765 
	C137.196442,49.261131 130.621231,45.246475 124.065834,41.200195 
	C119.286903,38.250435 114.585526,35.159191 109.669128,32.459648 
	C108.503624,31.819685 106.304489,31.961792 105.109337,32.655155 
	C97.479271,37.081745 89.924568,41.649742 82.491661,46.400581 
	C77.611816,49.519608 73.110580,53.236633 68.196251,56.294445 
	C63.460434,59.241180 58.338810,61.561386 53.528770,64.397804 
	C50.778641,66.019516 48.311966,68.121910 45.063690,69.924744 
	C41.870369,70.094887 38.782272,69.770615 39.964920,74.471008 
	C39.886036,89.756699 39.903152,104.577675 39.841339,119.398308 
	C39.786507,132.545929 39.644005,145.693161 39.103546,158.848541 
	C30.252203,158.855087 21.837515,158.853653 13.332329,158.401321 
	C13.241830,135.765396 13.241830,113.580345 13.241830,89.665359 
	C11.106786,91.374840 10.102892,92.178627 8.972143,93.252335 
	C8.521338,93.743813 8.197390,93.965363 7.568935,94.100983 
	C5.803657,94.266792 4.342883,94.518524 2.101228,94.904831 
	C2.101228,86.150963 2.101228,77.634735 2.364030,68.891098 
	C5.366089,66.442360 8.105346,64.221039 11.288179,62.012012 
	C12.197343,60.929718 13.036153,59.844360 13.063520,58.738918 
	C13.178333,54.101284 13.050226,49.457642 13.151244,44.502270 
	C17.463861,41.654278 21.599171,39.056297 25.819010,36.603764 
	C30.213062,34.049973 34.688702,31.636560 39.172985,29.561726 
	C39.562061,34.403736 39.906818,38.845791 40.272774,43.560963 
	C41.152809,42.823963 41.649158,42.408291 42.508926,41.952858 
	C44.462185,40.646027 45.924335,39.158520 47.664303,38.150635 
	C54.615303,34.124249 61.789742,30.469601 68.625259,26.261190 
	C78.340393,20.279898 87.873474,13.997996 97.390205,7.702235 
	C100.414513,5.701514 103.138557,3.246907 106.000000,0.999999 
	C107.066673,1.000000 108.133339,1.000000 109.600006,1.000001 
	C112.354782,3.005967 114.531326,5.283109 117.096390,6.969165 
	C126.325462,13.035547 135.615982,19.015430 145.016235,24.812397 
	C154.095245,30.411257 163.405548,35.635139 172.482239,41.237637 
	C177.267166,44.191093 181.750977,47.629547 186.411133,50.789486 
	C188.017853,51.878979 189.746796,52.788223 191.638977,54.231823 
	C195.281128,58.096920 195.330154,62.370701 195.236176,66.822189 
	C195.170944,69.912071 195.755585,73.015663 196.049866,76.113129 
z"/>

<path fill="currentColor" opacity="1.000000" stroke="none" 
	d="
M477.986267,90.144875 
	C484.657104,90.092590 491.327972,90.040306 498.782623,90.156204 
	C502.970123,91.149055 501.985962,88.476089 502.000183,87.009674 
	C502.071167,79.691360 501.979126,72.371475 501.854797,64.688286 
	C499.729218,63.575039 497.722839,62.292526 495.651672,62.177517 
	C489.749603,61.849781 483.821167,61.997486 477.903107,61.958103 
	C477.494171,58.445118 479.490051,57.930370 482.428986,57.963612 
	C493.715332,58.091255 505.003601,58.050514 516.781433,58.591732 
	C517.200073,71.093353 517.128418,83.075836 516.583679,95.058426 
	C510.455139,95.059135 504.799530,95.083534 499.144226,95.052422 
	C494.990997,95.029579 493.075134,97.089844 493.089081,101.193123 
	C493.120728,110.507904 492.930145,119.828445 493.238251,129.133118 
	C493.300964,131.027786 495.157654,132.863052 496.639709,134.762405 
	C501.190460,134.811630 505.305481,135.034088 509.377441,134.712158 
	C510.642944,134.612122 511.791779,133.036530 513.297302,131.837021 
	C513.714294,129.733017 513.916016,127.928947 513.926270,126.123802 
	C513.966370,119.032539 513.943909,119.032410 521.000000,119.000000 
	C521.000000,125.354393 521.000000,131.708786 520.531433,138.518463 
	C507.910492,138.991226 495.754211,138.838821 483.607849,139.117691 
	C479.317139,139.216217 477.845490,138.118500 477.931396,133.591690 
	C478.206055,119.114281 478.004181,104.627831 477.986267,90.144875 
z"/>

<path fill="currentColor" opacity="1.000000" stroke="none" 
	d="
M477.520569,90.075264 
	C478.004181,104.627831 478.206055,119.114281 477.931396,133.591690 
	C477.845490,138.118500 479.317139,139.216217 483.607849,139.117691 
	C495.754211,138.838821 507.910492,138.991226 520.531433,138.986877 
	C521.000000,139.750000 521.000000,140.500000 521.000000,141.625000 
	C507.766144,142.008057 494.532257,142.018097 481.298401,142.022430 
	C478.791412,142.023254 476.284393,142.001526 473.391693,141.590363 
	C473.002289,140.514328 472.998627,139.838135 473.284210,138.838348 
	C473.653961,127.729950 473.734436,116.945129 474.077484,106.055923 
	C474.522858,105.270180 474.705688,104.588821 474.888519,103.907463 
	C474.912140,102.890472 474.935760,101.873474 475.091614,100.237045 
	C474.692841,98.919525 474.161865,98.221451 473.729980,97.136932 
	C474.652435,93.193039 472.411652,93.022797 469.834473,93.027611 
	C459.603424,93.046700 449.372284,93.007355 439.141174,92.989670 
	C438.886688,89.549301 441.385223,89.992950 443.466736,89.990021 
	C454.662720,89.974304 465.858765,89.996529 477.520569,90.075264 
z"/>
<path fill="currentColor" opacity="1.000000" stroke="none" 
	d="
M39.540199,158.840561 
	C39.644005,145.693161 39.786507,132.545929 39.841339,119.398308 
	C39.903152,104.577675 39.886036,89.756699 40.255314,74.373276 
	C41.146229,73.533211 41.685078,73.255745 42.223930,72.978287 
	C42.152851,102.006439 42.081772,131.034592 42.005348,160.531372 
	C41.555553,161.000000 41.111111,161.000000 40.241356,160.643433 
	C39.724102,159.804779 39.632149,159.322662 39.540199,158.840561 
z"/>
<path fill="currentColor" opacity="1.000000" stroke="none" 
	d="
M521.000000,97.531342 
	C519.972351,97.991028 518.944702,97.982056 517.487366,97.554596 
	C517.057373,96.443520 517.057068,95.750916 517.056763,95.058319 
	C517.128418,83.075836 517.200073,71.093353 517.262390,58.654228 
	C518.335693,58.368904 519.418396,58.540234 520.750488,58.355782 
	C521.000000,71.020897 521.000000,84.041786 521.000000,97.531342 
z"/>
<path fill="currentColor" opacity="1.000000" stroke="none" 
	d="
M11.333333,161.000000 
	C10.999762,139.973038 11.022666,118.946007 10.954162,97.919266 
	C10.948836,96.284630 10.302959,94.652084 9.526897,93.000488 
	C10.102892,92.178627 11.106786,91.374840 13.241830,89.665359 
	C13.241830,113.580345 13.241830,135.765396 13.266911,158.760544 
	C13.194660,160.047104 13.097331,160.523544 13.000000,161.000000 
	C12.555555,161.000000 12.111111,161.000000 11.333333,161.000000 
z"/>
<path fill="currentColor" opacity="1.000000" stroke="none" 
	d="
M13.468657,161.000000 
	C13.097331,160.523544 13.194660,160.047104 13.357409,159.211426 
	C21.837515,158.853653 30.252203,158.855087 39.103546,158.848541 
	C39.632149,159.322662 39.724102,159.804779 39.908028,160.643433 
	C31.312437,161.000000 22.624874,161.000000 13.468657,161.000000 
z"/>
<path fill="currentColor" opacity="1.000000" stroke="none" 
	d="
M7.568937,94.100990 
	C5.849114,95.468910 3.824784,96.750900 1.400227,98.016449 
	C1.000000,88.645775 1.000000,79.291542 1.000000,69.468658 
	C1.185096,69.000961 1.370191,69.001923 1.828257,69.060699 
	C2.101228,77.634735 2.101228,86.150963 2.101228,94.904831 
	C4.342883,94.518524 5.803657,94.266792 7.568937,94.100990 
z"/>
<path fill="currentColor" opacity="1.000000" stroke="none" 
	d="
M332.959503,138.848236 
	C333.649506,131.187439 334.339508,123.526627 335.465088,115.391251 
	C336.498657,111.883591 337.096619,108.850494 337.737915,105.362419 
	C337.885071,89.294266 337.988861,73.681099 338.554565,58.036755 
	C363.322327,58.043224 387.628174,58.080864 411.969788,58.578018 
	C412.003967,66.026764 412.002319,73.015999 411.532288,79.987091 
	C393.622467,79.965271 376.179901,79.867844 358.741547,80.095940 
	C356.899445,80.120041 355.082336,82.057159 353.253632,83.106758 
	C355.029694,84.166840 356.796600,86.129700 358.583191,86.147758 
	C377.017090,86.334152 395.454132,86.206299 414.030640,86.583023 
	C415.005646,90.230232 413.466553,91.041466 410.497345,90.999039 
	C402.361725,90.882820 394.222382,90.898544 386.086792,91.017769 
	C384.370758,91.042915 381.032471,90.165962 383.048035,94.481003 
	C381.369568,97.814255 379.693115,100.794868 377.688171,103.834473 
	C376.813507,104.175209 376.267303,104.456940 375.721100,104.738678 
	C375.747772,105.186638 375.774475,105.634605 375.801178,106.082565 
	C380.491943,106.082565 385.188446,106.205231 389.869110,105.987999 
	C390.913422,105.939537 391.902283,104.696861 392.913330,103.651993 
	C391.948212,101.490868 390.986450,99.681740 390.055847,97.488235 
	C391.404510,95.845238 392.738800,93.503120 394.036560,93.523201 
	C398.654816,93.594627 403.260651,94.470177 407.871185,95.041252 
	C409.578125,98.458618 411.285065,101.875977 412.691223,105.959671 
	C412.487976,109.660545 411.209442,111.031158 407.996796,110.830971 
	C404.409119,110.607414 400.778259,110.581017 397.203125,110.892593 
	C395.751373,111.019112 394.397034,112.263527 392.912231,113.435471 
	C392.083527,118.031113 393.854034,119.485374 397.981293,119.218750 
	C401.916077,118.964577 405.887482,119.278175 409.863159,119.714203 
	C409.877411,121.319336 409.871338,122.552429 409.409363,123.825508 
	C404.304443,123.937370 399.655365,124.009247 394.648163,124.165161 
	C393.707794,127.068291 392.580841,129.940109 392.845734,132.677231 
	C392.935608,133.606125 396.509613,134.727051 398.541290,134.836441 
	C403.952179,135.127762 409.390106,134.916672 414.817291,134.905334 
	C414.876495,135.639954 414.935699,136.374557 414.640625,137.695709 
	C412.357117,138.555267 410.428650,139.058777 408.498444,139.065689 
	C389.347382,139.134293 370.196014,139.120773 350.574432,139.102692 
	C344.389252,138.999344 338.674377,138.923798 332.959503,138.848236 
M357.227631,123.033875 
	C356.825439,120.426430 357.582550,118.986626 360.583313,119.107910 
	C364.520721,119.267059 368.480591,119.302177 372.407196,119.039108 
	C373.608185,118.958641 374.731659,117.721809 375.965210,116.215645 
	C375.949677,115.145821 375.934143,114.075996 375.607849,112.261269 
	C371.783478,111.773376 367.968842,110.986801 364.132629,110.861794 
	C356.878815,110.625404 356.873657,110.783356 356.989868,103.113930 
	C358.769867,99.753448 360.549866,96.392967 362.706909,92.320679 
	C359.916870,92.183243 358.489960,92.112953 356.376770,91.717094 
	C353.373840,90.295441 353.031616,92.245636 353.032013,94.434578 
	C353.033081,100.640793 353.095245,106.846985 353.048279,113.958954 
	C353.063385,117.310219 353.078491,120.661484 353.025360,124.862976 
	C352.976898,126.566216 352.928436,128.269455 352.205017,130.224930 
	C351.789795,131.883606 351.374573,133.542282 351.025360,134.937271 
	C358.149811,134.937271 364.300751,135.171356 370.414673,134.798630 
	C372.317749,134.682602 374.120697,132.923874 375.988403,131.160370 
	C375.652863,129.489136 375.317322,127.817894 374.763000,125.363670 
	C373.281342,124.888084 371.816467,124.075676 370.314819,124.000771 
	C366.009674,123.785995 361.689636,123.870094 357.227631,123.033875 
M353.252563,65.147636 
	C353.154327,66.138794 352.990692,67.128487 352.968353,68.121353 
	C352.807312,75.282043 353.230072,75.711327 360.506378,75.736610 
	C366.004059,75.755707 371.501892,75.744377 376.999634,75.739914 
	C382.497314,75.735451 387.997803,75.812027 393.490265,75.638062 
	C394.585541,75.603371 395.650024,74.597458 396.728729,74.039391 
	C396.200165,73.365822 395.671600,72.692253 395.058167,71.183708 
	C395.013550,69.508575 394.968933,67.833443 395.588257,65.946228 
	C397.836334,61.652905 394.009003,62.231239 392.172546,62.201302 
	C380.889771,62.017345 369.601288,62.013187 358.318634,62.195595 
	C356.754364,62.220886 355.212128,63.606495 353.252563,65.147636 
z"/>
<path fill="currentColor" opacity="1.000000" stroke="none" 
	d="
M59.945564,105.818016 
	C60.267906,105.365761 60.590252,104.913513 61.379097,104.196259 
	C63.980381,101.960762 66.115166,99.990273 68.553650,97.929527 
	C69.549370,96.852142 70.241402,95.865013 70.933434,94.877892 
	C70.933434,94.877892 70.945869,94.947220 71.200470,94.888504 
	C71.976151,94.312904 72.497223,93.796013 73.366562,93.117813 
	C77.139671,90.131035 80.576508,89.899895 84.248024,93.158081 
	C85.223137,92.065292 86.176765,90.996567 87.130402,89.927849 
	C92.859634,86.361908 100.350227,87.418884 104.776871,92.179794 
	C108.653717,96.349396 112.749306,100.315620 116.763412,104.906891 
	C118.214325,106.608383 119.650101,107.774673 121.085869,108.940956 
	C121.085869,108.940956 121.027115,108.986984 121.078369,109.283829 
	C123.954796,116.158081 126.949684,109.508354 129.935959,109.344681 
	C129.569397,111.088707 129.276199,112.483658 128.677734,114.050980 
	C125.423790,118.668961 122.580284,118.739906 119.605507,114.171928 
	C118.625763,112.667458 117.199104,111.454018 115.897568,109.778839 
	C112.688438,106.652550 109.558548,103.854927 106.198395,100.838249 
	C101.249214,95.774025 101.249214,95.774025 95.883713,100.970917 
	C92.404007,104.313522 89.213440,107.692009 86.016205,111.038223 
	C86.009544,111.005943 86.075462,111.005394 85.856491,111.010773 
	C85.125694,111.332413 84.613869,111.648666 83.968216,112.278503 
	C81.733276,114.724327 79.382111,116.675522 77.646576,119.072472 
	C76.887512,120.120827 76.686211,122.756470 77.424088,123.522095 
	C84.752602,131.126282 92.330826,138.489807 100.030632,146.166290 
	C101.784966,145.898071 103.765884,145.824158 104.840538,144.799652 
	C111.257805,138.681686 117.466072,132.344528 123.915581,125.910179 
	C131.214294,132.934372 137.860107,139.380463 144.606613,145.719376 
	C145.100311,146.183258 146.322540,145.871750 147.538773,145.892578 
	C155.554916,138.415039 163.308624,131.034668 170.803101,123.399803 
	C171.483688,122.706474 171.078125,119.824074 170.193329,118.896721 
	C163.787384,112.182701 157.052246,105.783897 150.593338,99.118622 
	C148.511597,96.970345 146.592346,96.348969 143.798782,97.859695 
	C143.337738,96.057648 143.152832,94.427490 142.967926,92.797333 
	C143.939407,91.549019 144.669495,89.919853 145.926987,89.122833 
	C149.911362,86.597466 160.354584,87.752548 163.671692,91.057266 
	C172.103317,99.457390 180.348480,108.045837 188.839813,116.384239 
	C191.972763,119.460754 191.419998,122.219856 188.764175,124.824585 
	C183.372330,130.112640 177.738983,135.153488 172.284515,140.379028 
	C168.501999,144.002777 164.852036,147.764893 160.535172,151.770905 
	C153.578705,151.726761 147.229904,151.376923 140.881119,151.027069 
	C136.067291,146.372208 131.177765,141.791916 126.479492,137.023209 
	C124.767921,135.285965 123.413261,134.741211 121.039902,136.861984 
	C117.581673,140.016876 114.791672,143.088257 112.001663,146.159637 
	C110.078087,147.944656 108.154518,149.729691 105.581802,151.785004 
	C98.229591,151.962784 91.381660,153.283340 84.860870,149.679962 
	C84.086044,143.555511 78.252251,143.769318 74.956703,140.630356 
	C71.263611,136.853348 67.649826,133.407349 63.959743,129.637238 
	C62.579361,127.527336 61.275280,125.741570 59.844330,123.631531 
	C60.350655,121.495399 60.738026,119.541977 61.679245,117.907494 
	C62.857677,115.861069 64.490997,114.076584 65.951744,111.883728 
	C65.983887,111.391609 65.992249,111.194801 66.367668,110.950066 
	C69.449348,108.322823 72.163979,105.743523 75.047340,102.889633 
	C75.823776,101.625511 76.431480,100.635994 77.039177,99.646469 
	C76.551262,99.410995 76.063339,99.175529 75.575417,98.940063 
	C75.045517,100.263062 74.515625,101.586067 73.708984,102.898506 
	C70.903824,105.251465 68.375412,107.614990 65.533829,110.008827 
	C64.464821,110.878273 63.708977,111.717407 62.646637,112.722771 
	C59.913681,115.876083 57.487213,118.863174 55.122238,122.158432 
	C55.779877,122.982353 56.376026,123.498108 56.987656,124.006569 
	C57.003139,123.999283 56.986053,124.029160 57.087662,124.346794 
	C59.444698,126.457878 61.700130,128.251328 63.992901,130.399582 
	C67.672028,134.184494 71.313812,137.614609 74.993469,141.401703 
	C76.833794,143.773148 78.713997,145.724838 80.409386,147.825668 
	C81.420471,149.078522 82.141479,150.565475 82.568161,152.013367 
	C80.430840,152.011658 78.718246,151.943771 76.911194,151.596252 
	C76.203583,150.881882 75.590439,150.447113 74.986504,150.005768 
	C74.995705,149.999207 74.987694,150.023880 74.895126,149.701660 
	C67.210747,141.590485 59.554264,133.862869 52.070274,125.971657 
	C50.071140,123.863731 48.599419,121.255615 46.885563,118.877136 
	C46.885563,118.877136 46.971191,118.933304 47.212719,118.877853 
	C47.974098,118.295250 48.493946,117.768089 49.322716,117.097153 
	C52.170109,114.309349 54.708576,111.665329 57.496754,108.939789 
	C58.133617,108.514168 58.520771,108.170074 58.907925,107.825974 
	C58.907925,107.825974 58.984146,107.895195 59.156944,107.707939 
	C59.535011,106.953125 59.740288,106.385574 59.945564,105.818016 
z"/>
<path fill="currentColor" opacity="1.000000" stroke="none" 
	d="
M309.829590,134.870255 
	C309.862915,136.015686 309.896210,137.161133 309.419525,138.709961 
	C282.612061,139.056229 256.314545,138.999115 229.973267,138.524078 
	C229.704300,134.830811 231.974609,134.905746 234.207764,134.906845 
	C240.971832,134.910187 247.739044,135.013962 254.497589,134.819595 
	C256.060333,134.774673 257.593445,133.697861 259.485535,132.915344 
	C260.141510,127.363274 260.528229,121.993294 260.637573,116.617668 
	C260.647766,116.115906 258.903381,115.578453 257.973663,115.057571 
	C249.580429,115.057571 241.187195,115.057571 232.416901,115.057571 
	C232.416901,112.590088 232.416901,110.712990 232.416901,107.985947 
	C240.642380,107.985947 248.840561,107.985947 257.908936,107.950890 
	C259.515808,106.528496 260.949066,105.094887 260.860565,103.762360 
	C260.576691,99.488724 259.729889,95.252487 258.980225,90.600540 
	C257.229675,89.735115 255.610443,88.920715 253.966705,88.867790 
	C247.052353,88.645203 240.130661,88.650108 233.173676,88.217224 
	C233.134201,86.669708 233.132736,85.476723 233.586273,84.210999 
	C257.650757,84.114822 281.260193,84.091393 304.956726,84.480118 
	C305.705597,88.214546 303.812866,88.818649 301.076782,88.790825 
	C294.978851,88.728813 288.875031,88.657036 282.784851,88.886826 
	C281.502686,88.935204 280.268738,90.261162 278.919037,91.458549 
	C278.802032,96.155525 278.620087,100.401382 278.860046,104.623276 
	C278.924683,105.761086 280.270111,106.826111 281.027618,107.924545 
	C287.509308,107.952927 293.991119,107.961441 300.472595,108.015778 
	C306.002899,108.062134 306.234772,108.363205 305.540680,115.031914 
	C297.740387,115.031914 289.829590,115.031914 281.018311,115.078125 
	C279.663605,116.198669 278.841980,117.265228 278.819061,118.348686 
	C278.722931,122.893021 278.865875,127.442421 278.807434,132.281372 
	C280.196350,133.346237 281.684509,134.753494 283.204407,134.788681 
	C292.075348,134.994080 300.953735,134.877869 309.829590,134.870255 
z"/>
<path fill="currentColor" opacity="1.000000" stroke="none" 
	d="
M229.143524,76.047096 
	C236.208969,69.819397 243.274384,63.591690 250.918762,57.430679 
	C261.622192,57.655254 271.746399,57.856079 281.871460,57.921585 
	C283.280304,57.930698 284.693451,57.273174 286.104584,56.924255 
	C293.860901,63.881683 301.617249,70.839111 309.466553,78.292709 
	C307.867645,79.159584 306.182495,79.810844 304.482758,79.851273 
	C297.938690,80.006935 291.389984,79.967155 284.544739,79.865601 
	C280.818085,76.187843 277.553894,72.461861 273.894867,69.175453 
	C271.939850,67.419518 269.303680,66.421982 266.657593,65.163803 
	C263.229126,68.553429 260.117981,71.861427 256.882874,75.463760 
	C255.458145,77.170074 254.157379,78.582054 252.397186,79.978058 
	C244.135513,79.962074 236.333282,79.962074 228.439957,79.962074 
	C228.754181,78.213638 228.948853,77.130371 229.143524,76.047096 
z"/>
<path fill="currentColor" opacity="1.000000" stroke="none" 
	d="
M477.083679,65.178406 
	C477.053925,66.194878 477.024170,67.211349 476.474304,68.587097 
	C463.019592,68.985313 450.084961,69.024254 437.150360,69.063194 
	C436.558777,65.522362 437.834290,63.795940 441.643280,63.975609 
	C445.181732,64.142517 447.450592,62.871861 446.571472,58.369240 
	C453.319031,58.003616 459.586212,57.987179 465.853394,57.970741 
	C465.911346,59.032902 465.969299,60.095058 465.966919,61.852978 
	C467.218018,63.350792 468.447449,64.592346 469.859406,64.855896 
	C472.205780,65.293861 474.669434,65.103897 477.083679,65.178406 
z"/>
<path fill="currentColor" opacity="1.000000" stroke="none" 
	d="
M413.890320,86.165932 
	C395.454132,86.206299 377.017090,86.334152 358.583191,86.147758 
	C356.796600,86.129700 355.029694,84.166840 353.253632,83.106758 
	C355.082336,82.057159 356.899445,80.120041 358.741547,80.095940 
	C376.179901,79.867844 393.622467,79.965271 411.663635,80.205933 
	C412.536011,80.641441 412.808655,80.839966 413.081268,81.038498 
	C411.697235,81.692680 410.317993,82.903946 408.928467,82.915794 
	C393.164703,83.050209 377.399384,83.001152 361.634460,83.001205 
	C360.076630,83.001213 358.518768,83.001213 356.960938,83.001213 
	C356.962708,83.342979 356.964508,83.684746 356.966309,84.026512 
	C375.680634,84.026512 394.394928,84.026512 413.562683,84.436226 
	C413.974213,85.285942 413.932281,85.725937 413.890320,86.165932 
z"/>
<path fill="currentColor" opacity="1.000000" stroke="none" 
	d="
M461.988159,84.996307 
	C455.506409,84.993980 449.522400,84.948792 443.539429,85.008904 
	C440.874146,85.035683 439.052429,84.483231 438.979248,81.235374 
	C438.903320,77.867050 440.522980,76.943283 443.569794,76.977493 
	C451.879272,77.070808 460.190521,76.995651 468.501068,77.007225 
	C475.262848,77.016640 475.440582,77.234993 474.614441,84.996307 
	C470.642548,84.996307 466.564453,84.996307 461.988159,84.996307 
z"/>
<path fill="currentColor" opacity="1.000000" stroke="none" 
	d="
M411.933990,58.118504 
	C387.628174,58.080864 363.322327,58.043224 338.184662,58.022491 
	C336.613007,58.022873 335.873169,58.006351 335.133362,57.989830 
	C334.206726,54.200340 336.928436,55.008247 338.937714,55.007290 
	C361.005554,54.996773 383.073425,55.001713 405.141266,55.001774 
	C407.630127,55.001781 410.138702,54.819477 412.597107,55.091915 
	C413.457642,55.187275 414.194672,56.396832 414.558136,57.555092 
	C413.396790,58.047905 412.665375,58.083206 411.933990,58.118504 
z"/>
<path fill="currentColor" opacity="1.000000" stroke="none" 
	d="
M230.017059,138.942001 
	C256.314545,138.999115 282.612061,139.056229 309.366486,139.137146 
	C310.647369,143.175781 307.594116,141.967545 305.793335,141.971313 
	C280.838654,142.023376 255.883850,141.998459 230.458221,141.572540 
	C229.997269,140.415787 230.007156,139.678894 230.017059,138.942001 
z"/>
<path fill="currentColor" opacity="1.000000" stroke="none" 
	d="
M284.842987,80.000244 
	C291.389984,79.967155 297.938690,80.006935 304.482758,79.851273 
	C306.182495,79.810844 307.867645,79.159584 309.770142,78.464607 
	C313.863373,77.922661 312.928711,80.496025 312.953278,82.791283 
	C310.855560,82.977318 309.074982,83.135231 306.725739,83.636566 
	C305.727966,84.009315 305.298798,84.038643 304.869659,84.067963 
	C281.260193,84.091393 257.650757,84.114822 233.300720,84.134895 
	C232.370667,84.077797 232.181183,84.024055 232.163788,83.621140 
	C234.001892,82.844421 235.657928,82.101051 237.335815,82.047981 
	C242.579758,81.882149 247.831940,81.977043 253.544006,81.995560 
	C263.149048,82.023323 272.292236,82.097633 281.431396,81.939796 
	C282.579437,81.919975 283.706299,80.676666 284.842987,80.000244 
z"/>
<path fill="currentColor" opacity="1.000000" stroke="none" 
	d="
M351.044739,139.130478 
	C370.196014,139.120773 389.347382,139.134293 408.498444,139.065689 
	C410.428650,139.058777 412.357117,138.555267 414.655823,138.064377 
	C415.820221,138.884491 416.615234,139.922470 418.220612,142.018539 
	C395.206543,142.018539 373.568024,142.018539 351.449066,141.602966 
	C350.993988,140.501740 351.019379,139.816116 351.044739,139.130478 
z"/>
<path fill="currentColor" opacity="1.000000" stroke="none" 
	d="
M439.098572,93.390282 
	C449.372284,93.007355 459.603424,93.046700 469.834473,93.027611 
	C472.411652,93.022797 474.652435,93.193039 473.289429,97.143600 
	C463.285492,97.506157 453.820251,97.536324 444.357788,97.389977 
	C442.622894,97.363144 440.899109,96.619049 439.170227,96.206039 
	C439.132111,95.400993 439.094025,94.595940 439.098572,93.390282 
z"/>
<path fill="currentColor" opacity="1.000000" stroke="none" 
	d="
M335.068665,58.454285 
	C335.873169,58.006351 336.613007,58.022873 337.722717,58.053658 
	C337.988861,73.681099 337.885071,89.294266 337.422333,105.403442 
	C336.424622,105.925346 335.785858,105.951241 335.147064,105.977142 
	C335.099365,90.291008 335.051636,74.604866 335.068665,58.454285 
z"/>
<path fill="currentColor" opacity="1.000000" stroke="none" 
	d="
M46.513245,118.954193 
	C48.599419,121.255615 50.071140,123.863731 52.070274,125.971657 
	C59.554264,133.862869 67.210747,141.590485 74.612473,149.800903 
	C73.883698,150.483078 73.345016,150.743790 72.806335,151.004517 
	C63.983944,142.327988 55.063351,133.746338 46.469120,124.849442 
	C45.447197,123.791527 46.207008,121.012497 46.513245,118.954193 
z"/>
<path fill="currentColor" opacity="1.000000" stroke="none" 
	d="
M437.106750,69.468155 
	C450.084961,69.024254 463.019592,68.985313 476.412964,68.963531 
	C476.061737,69.984108 475.266388,71.847130 474.439484,71.861244 
	C463.110077,72.054741 451.775482,72.053123 440.444824,71.901421 
	C439.308746,71.886215 438.189972,70.580116 437.106750,69.468155 
z"/>
<path fill="currentColor" opacity="1.000000" stroke="none" 
	d="
M414.030640,86.583023 
	C413.932281,85.725937 413.974213,85.285942 414.028076,84.514732 
	C415.031342,84.928207 416.654175,85.519257 416.880615,86.450012 
	C417.331299,88.302567 417.014008,90.341957 417.014008,92.329140 
	C413.952637,92.956322 410.983521,93.564598 407.942810,94.607063 
	C403.260651,94.470177 398.654816,93.594627 394.036560,93.523201 
	C392.738800,93.503120 391.404510,95.845238 389.643066,97.544815 
	C388.581543,96.388519 387.963898,94.791252 387.174103,92.748734 
	C385.913605,93.170410 384.481812,93.649384 383.050049,94.128357 
	C381.032471,90.165962 384.370758,91.042915 386.086792,91.017769 
	C394.222382,90.898544 402.361725,90.882820 410.497345,90.999039 
	C413.466553,91.041466 415.005646,90.230232 414.030640,86.583023 
z"/>
<path fill="currentColor" opacity="1.000000" stroke="none" 
	d="
M229.973267,138.524078 
	C230.007156,139.678894 229.997269,140.415787 229.991821,141.521103 
	C229.319092,141.267456 228.123688,140.695465 228.057877,140.014328 
	C227.820892,137.560928 227.964752,135.070709 227.964752,131.959976 
	C237.786209,131.959976 247.378769,131.959976 257.653015,132.117859 
	C258.603180,132.549133 258.871674,132.822510 259.140198,133.095886 
	C257.593445,133.697861 256.060333,134.774673 254.497589,134.819595 
	C247.739044,135.013962 240.971832,134.910187 234.207764,134.906845 
	C231.974609,134.905746 229.704300,134.830811 229.973267,138.524078 
z"/>
<path fill="currentColor" opacity="1.000000" stroke="none" 
	d="
M472.994934,139.161942 
	C472.998627,139.838135 473.002289,140.514328 473.002441,141.528625 
	C462.279327,141.920547 451.559265,142.028748 440.840973,141.934570 
	C439.888336,141.926193 438.947235,140.600952 438.434326,139.432800 
	C439.598450,138.963135 440.329102,138.947998 441.521912,138.979553 
	C452.321014,139.071487 462.657990,139.116714 472.994934,139.161942 
z"/>
<path fill="currentColor" opacity="1.000000" stroke="none" 
	d="
M285.893951,56.576920 
	C284.693451,57.273174 283.280304,57.930698 281.871460,57.921585 
	C271.746399,57.856079 261.622192,57.655254 251.174515,57.215767 
	C251.610611,56.290085 252.363770,55.093925 253.130142,55.085423 
	C263.282135,54.972748 273.436188,55.003456 283.588928,55.090477 
	C284.290253,55.096489 284.985321,55.832863 285.893951,56.576920 
z"/>
<path fill="currentColor" opacity="1.000000" stroke="none" 
	d="
M72.910873,151.379486 
	C73.345016,150.743790 73.883698,150.483078 74.705040,150.123123 
	C74.987694,150.023880 74.995705,149.999207 75.074341,150.298309 
	C75.770538,151.023560 76.388092,151.449707 77.005653,151.875870 
	C78.718246,151.943771 80.430840,152.011658 82.843216,151.923157 
	C84.030151,151.181946 84.517296,150.597122 85.004448,150.012299 
	C91.381660,153.283340 98.229591,151.962784 105.390205,152.066223 
	C104.161545,153.056366 102.508949,154.805435 100.783287,154.880768 
	C93.525169,155.197632 86.232925,155.247513 78.981163,154.864777 
	C76.943535,154.757233 75.001373,152.841034 72.910873,151.379486 
z"/>
<path fill="currentColor" opacity="1.000000" stroke="none" 
	d="
M441.059723,138.932861 
	C440.329102,138.947998 439.598450,138.963135 438.503021,138.996338 
	C438.094910,128.318970 438.051636,117.623528 438.440338,106.498642 
	C439.618164,106.121498 440.363953,106.173820 441.074280,106.678513 
	C441.045776,117.731552 441.052765,128.332214 441.059723,138.932861 
z"/>
<path fill="currentColor" opacity="1.000000" stroke="none" 
	d="
M477.546173,65.118240 
	C474.669434,65.103897 472.205780,65.293861 469.859406,64.855896 
	C468.447449,64.592346 467.218018,63.350792 465.979645,62.252159 
	C469.766266,62.086884 473.479858,62.218182 477.548279,62.153793 
	C483.821167,61.997486 489.749603,61.849781 495.651672,62.177517 
	C497.722839,62.292526 499.729218,63.575039 501.476196,64.658081 
	C500.427979,65.005264 499.668762,65.018814 498.909546,65.032364 
	C491.942596,65.040932 484.975616,65.049507 477.546173,65.118240 
z"/>
<path fill="currentColor" opacity="1.000000" stroke="none" 
	d="
M309.891693,134.443695 
	C300.953735,134.877869 292.075348,134.994080 283.204407,134.788681 
	C281.684509,134.753494 280.196350,133.346237 279.173645,132.290665 
	C280.141876,131.995453 280.630035,131.982391 281.118164,131.969315 
	C289.576355,131.971161 298.036133,131.894806 306.490906,132.065506 
	C307.657867,132.089066 308.800110,133.336365 309.891693,134.443695 
z"/>
<path fill="currentColor" opacity="1.000000" stroke="none" 
	d="
M438.975037,96.551369 
	C440.899109,96.619049 442.622894,97.363144 444.357788,97.389977 
	C453.820251,97.536324 463.285492,97.506157 473.190308,97.530037 
	C474.161865,98.221451 474.692841,98.919525 475.057373,99.856781 
	C463.629059,100.066994 452.367188,100.032341 441.105286,100.013939 
	C438.901062,100.010330 436.690216,100.074600 438.975037,96.551369 
z"/>
<path fill="currentColor" opacity="1.000000" stroke="none" 
	d="
M414.849304,134.507965 
	C409.390106,134.916672 403.952179,135.127762 398.541290,134.836441 
	C396.509613,134.727051 392.935608,133.606125 392.845734,132.677231 
	C392.580841,129.940109 393.707794,127.068291 394.651001,124.500916 
	C395.019928,125.201637 395.027924,125.650635 395.035889,126.099632 
	C393.287354,130.895340 393.834656,131.878082 398.499695,131.967819 
	C402.493530,132.044632 406.503784,131.795746 410.478210,132.084396 
	C411.986969,132.193985 413.415955,133.402817 414.849304,134.507965 
z"/>
<path fill="currentColor" opacity="1.000000" stroke="none" 
	d="
M498.946594,65.497047 
	C499.668762,65.018814 500.427979,65.005264 501.565796,65.021927 
	C501.979126,72.371475 502.071167,79.691360 502.000183,87.009674 
	C501.985962,88.476089 502.970123,91.149055 499.246216,90.138000 
	C498.945221,81.954987 498.964417,73.958359 498.946594,65.497047 
z"/>
<path fill="currentColor" opacity="1.000000" stroke="none" 
	d="
M441.109772,106.226135 
	C440.363953,106.173820 439.618164,106.121498 438.500366,106.033218 
	C439.254364,105.330299 440.372467,104.099770 441.507507,104.083939 
	C452.325562,103.932961 463.146454,103.987816 474.427551,103.945503 
	C474.705688,104.588821 474.522858,105.270180 473.622162,106.035294 
	C462.306122,106.154747 451.707947,106.190437 441.109772,106.226135 
z"/>
<path fill="currentColor" opacity="1.000000" stroke="none" 
	d="
M253.080933,81.970886 
	C247.831940,81.977043 242.579758,81.882149 237.335815,82.047981 
	C235.657928,82.101051 234.001892,82.844421 231.951904,83.766335 
	C231.364960,84.532471 231.161972,84.804230 230.958969,85.075981 
	C230.183212,84.384331 229.428680,83.666870 228.626678,83.007133 
	C227.438873,82.030060 226.217407,81.093933 225.010269,80.140381 
	C226.277542,79.009338 227.544800,77.878288 228.977798,76.397171 
	C228.948853,77.130371 228.754181,78.213638 228.439957,79.962074 
	C236.333282,79.962074 244.135513,79.962074 252.468292,80.303780 
	C253.026199,81.087288 253.053558,81.529083 253.080933,81.970886 
z"/>
<path fill="currentColor" opacity="1.000000" stroke="none" 
	d="
M196.484680,76.058960 
	C195.755585,73.015663 195.170944,69.912071 195.236176,66.822189 
	C195.330154,62.370701 195.281128,58.096920 191.949677,54.416229 
	C197.348740,54.756393 198.712708,57.982224 198.086273,62.836182 
	C197.522705,67.203178 197.295212,71.613548 196.484680,76.058960 
z"/>
<path fill="currentColor" opacity="1.000000" stroke="none" 
	d="
M411.969788,58.578018 
	C412.665375,58.083206 413.396790,58.047905 414.493591,57.990707 
	C414.909363,64.631638 415.005188,71.294762 414.960693,77.956947 
	C414.954071,78.949059 414.287079,79.936760 413.503418,80.982498 
	C412.808655,80.839966 412.536011,80.641441 412.132050,80.224075 
	C412.002319,73.015999 412.003967,66.026764 411.969788,58.578018 
z"/>
<path fill="currentColor" opacity="1.000000" stroke="none" 
	d="
M304.956726,84.480118 
	C305.298798,84.038643 305.727966,84.009315 306.479675,83.974228 
	C306.802216,86.119492 306.802216,88.270515 306.802216,91.018456 
	C298.558960,91.018456 290.282501,91.018456 281.198059,91.026093 
	C279.930878,91.021957 279.471710,91.010193 279.012573,90.998428 
	C280.268738,90.261162 281.502686,88.935204 282.784851,88.886826 
	C288.875031,88.657036 294.978851,88.728813 301.076782,88.790825 
	C303.812866,88.818649 305.705597,88.214546 304.956726,84.480118 
z"/>
<path fill="currentColor" opacity="1.000000" stroke="none" 
	d="
M465.880798,57.566818 
	C459.586212,57.987179 453.319031,58.003616 446.593140,58.012070 
	C446.458344,57.031345 446.779144,55.212593 447.106598,55.211399 
	C453.035065,55.189728 458.965485,55.359188 464.890594,55.606030 
	C465.250824,55.621044 465.569977,56.621147 465.880798,57.566818 
z"/>
<path fill="currentColor" opacity="1.000000" stroke="none" 
	d="
M350.574432,139.102692 
	C351.019379,139.816116 350.993988,140.501740 350.985565,141.530090 
	C345.582275,141.918869 340.161285,141.925140 334.742249,142.031830 
	C332.753876,142.070984 331.415863,141.755737 332.615784,139.083038 
	C338.674377,138.923798 344.389252,138.999344 350.574432,139.102692 
z"/>
<path fill="currentColor" opacity="1.000000" stroke="none" 
	d="
M392.998383,112.999283 
	C394.397034,112.263527 395.751373,111.019112 397.203125,110.892593 
	C400.778259,110.581017 404.409119,110.607414 407.996796,110.830971 
	C411.209442,111.031158 412.487976,109.660545 412.627716,106.331665 
	C413.804871,108.036186 414.744751,110.035034 416.147369,113.018013 
	C408.545502,113.018013 402.279785,113.018013 395.202820,113.021629 
	C393.927216,113.016594 393.462799,113.007942 392.998383,112.999283 
z"/>
<path fill="currentColor" opacity="1.000000" stroke="none" 
	d="
M233.211655,88.571754 
	C240.130661,88.650108 247.052353,88.645203 253.966705,88.867790 
	C255.610443,88.920715 257.229675,89.735115 258.679413,90.602982 
	C258.299683,91.028824 258.100677,91.050949 257.901642,91.073082 
	C250.358749,91.048828 242.814789,91.083786 235.273911,90.947662 
	C233.857056,90.922096 232.452530,90.213608 231.423355,89.315498 
	C232.273483,88.731079 232.742569,88.651421 233.211655,88.571754 
z"/>
<path fill="currentColor" opacity="1.000000" stroke="none" 
	d="
M140.959183,151.404312 
	C147.229904,151.376923 153.578705,151.726761 160.384705,152.084396 
	C159.169983,153.070724 157.578598,154.664291 155.808838,154.896149 
	C152.418747,155.340271 148.879807,155.341675 145.498627,154.857117 
	C143.897446,154.627670 142.517456,152.855026 140.959183,151.404312 
z"/>
<path fill="currentColor" opacity="1.000000" stroke="none" 
	d="
M259.485535,132.915344 
	C258.871674,132.822510 258.603180,132.549133 258.114380,132.091949 
	C257.926086,126.598862 257.958099,121.289566 257.981873,115.518921 
	C258.903381,115.578453 260.647766,116.115906 260.637573,116.617668 
	C260.528229,121.993294 260.141510,127.363274 259.485535,132.915344 
z"/>
<path fill="currentColor" opacity="1.000000" stroke="none" 
	d="
M86.924507,89.575821 
	C86.176765,90.996567 85.223137,92.065292 84.248024,93.158081 
	C80.576508,89.899895 77.139671,90.131035 73.049683,93.052551 
	C72.173195,93.105904 71.961845,93.063194 71.750496,93.020493 
	C72.280014,89.533455 74.058922,87.543457 77.829803,88.020126 
	C80.796066,88.395081 83.755913,88.820686 86.924507,89.575821 
z"/>
<path fill="currentColor" opacity="1.000000" stroke="none" 
	d="
M257.937317,91.534485 
	C258.100677,91.050949 258.299683,91.028824 258.799469,91.004257 
	C259.729889,95.252487 260.576691,99.488724 260.860565,103.762360 
	C260.949066,105.094887 259.515808,106.528496 258.375397,107.929703 
	C257.972107,102.627678 257.972565,97.311783 257.937317,91.534485 
z"/>
<path fill="currentColor" opacity="1.000000" stroke="none" 
	d="
M392.912231,113.435471 
	C393.462799,113.007942 393.927216,113.016594 394.739929,113.026413 
	C395.088196,114.168053 395.088196,115.308517 395.088196,116.998436 
	C399.690308,116.998436 404.221191,116.907005 408.744507,117.052406 
	C410.159668,117.097900 411.554260,117.781906 412.544891,118.661964 
	C411.368591,119.214249 410.605713,119.278214 409.842804,119.342171 
	C405.887482,119.278175 401.916077,118.964577 397.981293,119.218750 
	C393.854034,119.485374 392.083527,118.031113 392.912231,113.435471 
z"/>
<path fill="currentColor" opacity="1.000000" stroke="none" 
	d="
M128.983017,113.878616 
	C129.276199,112.483658 129.569397,111.088707 129.935959,109.344681 
	C126.949684,109.508354 123.954796,116.158081 121.087860,109.247742 
	C126.657707,111.760750 127.804520,105.486870 131.602875,104.192032 
	C132.554153,105.613976 133.156876,106.761070 133.823578,108.230530 
	C133.931564,108.767235 133.975601,108.981575 133.883850,109.482506 
	C132.159729,111.138939 130.571365,112.508781 128.983017,113.878616 
z"/>
<path fill="currentColor" opacity="1.000000" stroke="none" 
	d="
M133.759613,107.908157 
	C133.156876,106.761070 132.554153,105.613976 131.958496,104.132629 
	C132.427551,102.941948 132.889496,102.085510 133.994598,101.081993 
	C136.687347,100.104965 138.736969,99.275024 141.110855,98.313774 
	C140.637085,99.690964 140.276001,100.740646 139.606750,101.924339 
	C137.452271,104.008286 135.605942,105.958221 133.759613,107.908157 
z"/>
<path fill="currentColor" opacity="1.000000" stroke="none" 
	d="
M139.914886,101.790329 
	C140.276001,100.740646 140.637085,99.690964 141.110855,98.313774 
	C138.736969,99.275024 136.687347,100.104965 134.270599,100.950630 
	C136.688049,98.283188 139.472656,95.600029 142.612595,92.857101 
	C143.152832,94.427490 143.337738,96.057648 143.760010,98.185669 
	C143.044159,99.797874 142.090927,100.912216 140.831726,101.968903 
	C140.322128,101.870949 140.118515,101.830643 139.914886,101.790329 
z"/>
<path fill="currentColor" opacity="1.000000" stroke="none" 
	d="
M281.066864,131.506332 
	C280.630035,131.982391 280.141876,131.995453 279.287537,131.999237 
	C278.865875,127.442421 278.722931,122.893021 278.819061,118.348686 
	C278.841980,117.265228 279.663605,116.198669 280.549957,115.116478 
	C280.993225,120.420197 281.004395,125.731773 281.066864,131.506332 
z"/>
<path fill="currentColor" opacity="1.000000" stroke="none" 
	d="
M278.919037,91.458542 
	C279.471710,91.010193 279.930878,91.021957 280.734375,91.031876 
	C281.053558,96.355087 281.028442,101.680145 281.015472,107.464874 
	C280.270111,106.826111 278.924683,105.761086 278.860046,104.623276 
	C278.620087,100.401382 278.802032,96.155525 278.919037,91.458542 
z"/>
<path fill="currentColor" opacity="1.000000" stroke="none" 
	d="
M395.498596,126.063133 
	C395.027924,125.650635 395.019928,125.201637 395.009155,124.416885 
	C399.655365,124.009247 404.304443,123.937370 409.601227,124.063248 
	C410.550568,124.529007 410.852173,124.797005 411.153778,125.065002 
	C406.089630,125.385551 401.025482,125.706093 395.498596,126.063133 
z"/>
<path fill="currentColor" opacity="1.000000" stroke="none" 
	d="
M112.389587,146.102325 
	C114.791672,143.088257 117.581673,140.016876 120.740829,136.984512 
	C118.332504,140.030685 115.555008,143.037842 112.389587,146.102325 
z"/>
<path fill="currentColor" opacity="1.000000" stroke="none" 
	d="
M57.247047,109.021309 
	C54.708576,111.665329 52.170109,114.309349 49.032722,117.031113 
	C48.239479,117.069656 48.045158,117.030472 47.850834,116.991295 
	C50.661282,114.008118 53.471729,111.024940 56.707001,108.307953 
	C57.131828,108.574150 57.247047,109.021309 57.247047,109.021309 
z"/>
<path fill="currentColor" opacity="1.000000" stroke="none" 
	d="
M335.084045,106.423233 
	C335.785858,105.951241 336.424622,105.925346 337.378967,105.858421 
	C337.096619,108.850494 336.498657,111.883591 335.519043,114.953491 
	C335.098633,112.283302 335.059845,109.576309 335.084045,106.423233 
z"/>
<path fill="currentColor" opacity="1.000000" stroke="none" 
	d="
M68.249954,98.019783 
	C66.115166,99.990273 63.980381,101.960762 61.497238,103.943153 
	C63.187916,101.640556 65.226944,99.326050 67.699951,97.291794 
	C68.133934,97.572037 68.249954,98.019783 68.249954,98.019783 
z"/>
<path fill="currentColor" opacity="1.000000" stroke="none" 
	d="
M411.547638,125.009247 
	C410.852173,124.797005 410.550568,124.529007 410.057098,124.023270 
	C409.871338,122.552429 409.877411,121.319336 409.863159,119.714211 
	C410.605713,119.278214 411.368591,119.214249 412.510620,119.101257 
	C412.573669,121.019318 412.257568,122.986397 411.547638,125.009247 
z"/>
<path fill="currentColor" opacity="1.000000" stroke="none" 
	d="
M42.502197,72.881577 
	C41.685078,73.255745 41.146229,73.533211 40.316982,73.908409 
	C38.782272,69.770615 41.870369,70.094887 44.696529,69.953568 
	C44.249050,70.971977 43.514755,71.878426 42.502197,72.881577 
z"/>
<path fill="currentColor" opacity="1.000000" stroke="none" 
	d="
M121.058701,108.602768 
	C119.650101,107.774673 118.214325,106.608383 116.929802,105.202789 
	C118.397873,106.063843 119.714706,107.164207 121.058701,108.602768 
z"/>
<path fill="currentColor" opacity="1.000000" stroke="none" 
	d="
M233.173676,88.217224 
	C232.742569,88.651421 232.273483,88.731079 231.454666,88.876968 
	C231.061615,87.913757 231.018295,86.884323 230.966965,85.465431 
	C231.161972,84.804230 231.364960,84.532471 231.779846,84.115524 
	C232.181183,84.024055 232.370667,84.077797 232.845703,84.207626 
	C233.132736,85.476723 233.134201,86.669708 233.173676,88.217224 
z"/>
<path fill="currentColor" opacity="1.000000" stroke="none" 
	d="
M68.553650,97.929527 
	C68.249954,98.019783 68.133934,97.572037 68.081696,97.347084 
	C68.781593,96.410873 69.533722,95.699615 70.609650,94.933128 
	C70.241402,95.865013 69.549370,96.852142 68.553650,97.929527 
z"/>
<path fill="currentColor" opacity="1.000000" stroke="none" 
	d="
M71.513527,93.168243 
	C71.961845,93.063194 72.173195,93.105904 72.701424,93.213867 
	C72.497223,93.796013 71.976151,94.312904 71.165749,94.882660 
	C71.009796,94.395676 71.143173,93.855835 71.513527,93.168243 
z"/>
<path fill="currentColor" opacity="1.000000" stroke="none" 
	d="
M47.600700,117.134506 
	C48.045158,117.030472 48.239479,117.069656 48.723801,117.174889 
	C48.493946,117.768089 47.974098,118.295250 47.162048,118.870468 
	C47.030094,118.371605 47.190334,117.824661 47.600700,117.134506 
z"/>
<path fill="currentColor" opacity="1.000000" stroke="none" 
	d="
M57.496758,108.939789 
	C57.247047,109.021309 57.131828,108.574150 57.081001,108.349289 
	C57.442471,107.955406 57.854763,107.786392 58.587494,107.721680 
	C58.520771,108.170074 58.133617,108.514168 57.496758,108.939789 
z"/>
<path fill="currentColor" opacity="1.000000" stroke="none" 
	d="
M59.659409,106.002686 
	C59.740288,106.385574 59.535011,106.953125 59.122185,107.745918 
	C59.067505,107.376556 59.220379,106.781952 59.659409,106.002686 
z"/>
<path fill="currentColor" opacity="1.000000" stroke="none" 
	d="
M11.288179,62.012012 
	C10.897565,57.420040 10.881004,52.837738 11.053864,48.262596 
	C11.095493,47.160751 11.764859,46.082619 12.578313,44.904892 
	C13.050226,49.457642 13.178333,54.101284 13.063520,58.738918 
	C13.036153,59.844360 12.197343,60.929718 11.288179,62.012012 
z"/>
<path fill="currentColor" opacity="1.000000" stroke="none" 
	d="
M39.172985,29.561724 
	C41.187756,28.694590 42.172283,29.270773 42.047691,31.623272 
	C41.881298,34.765007 42.019196,37.922859 42.085953,41.533203 
	C41.649158,42.408291 41.152809,42.823963 40.272774,43.560963 
	C39.906818,38.845791 39.562061,34.403736 39.172985,29.561724 
z"/>
<path fill="currentColor" opacity="1.000000" stroke="none" 
	d="
M516.583740,95.058426 
	C517.057068,95.750916 517.057373,96.443520 517.060364,97.482658 
	C510.293060,97.829201 503.523071,97.829201 496.019409,97.829201 
	C496.019409,109.242172 496.019409,120.113449 496.014771,131.800903 
	C496.069214,133.319962 496.128265,134.022827 496.187347,134.725693 
	C495.157654,132.863052 493.300964,131.027786 493.238251,129.133118 
	C492.930145,119.828445 493.120728,110.507904 493.089081,101.193123 
	C493.075134,97.089844 494.990997,95.029579 499.144226,95.052422 
	C504.799530,95.083534 510.455139,95.059135 516.583740,95.058426 
z"/>
<path fill="currentColor" opacity="1.000000" stroke="none" 
	d="
M496.639709,134.762405 
	C496.128265,134.022827 496.069214,133.319962 496.021179,132.263947 
	C501.374420,131.948242 506.716644,131.985703 512.526428,132.079803 
	C511.791779,133.036530 510.642944,134.612122 509.377441,134.712158 
	C505.305481,135.034088 501.190460,134.811630 496.639709,134.762405 
z"/>
<path fill="currentColor" opacity="1.000000" stroke="none" 
	d="
M441.074280,106.678513 
	C451.707947,106.190437 462.306122,106.154747 473.359619,106.139679 
	C473.734436,116.945129 473.653961,127.729950 473.284180,138.838348 
	C462.657990,139.116714 452.321014,139.071487 441.521912,138.979568 
	C441.052765,128.332214 441.045776,117.731552 441.074280,106.678513 
M460.188080,131.096008 
	C460.081390,125.084305 459.974701,119.072601 459.626831,112.442162 
	C456.796753,110.148758 454.423676,111.644348 454.177338,114.306496 
	C453.645386,120.055435 453.865112,125.899643 454.201263,131.680237 
	C454.264160,132.762009 456.183868,134.004761 457.505035,134.581360 
	C457.903992,134.755478 459.173584,132.934647 460.188080,131.096008 
z"/>

<path fill="currentColor" opacity="1.000000" stroke="none" 
	d="
M356.142822,65.029617 
	C356.142822,67.488388 356.142822,69.947159 356.142822,72.721405 
	C369.138275,72.721405 381.874115,72.721405 394.876495,72.370041 
	C395.671600,72.692253 396.200165,73.365822 396.728729,74.039383 
	C395.650024,74.597458 394.585541,75.603371 393.490265,75.638062 
	C387.997803,75.812027 382.497314,75.735451 376.999634,75.739914 
	C371.501892,75.744377 366.004059,75.755707 360.506378,75.736610 
	C353.230072,75.711327 352.807312,75.282043 352.968353,68.121353 
	C352.990692,67.128487 353.154327,66.138794 353.859009,64.912033 
	C355.024567,64.794167 355.583679,64.911888 356.142822,65.029617 
z"/>

<path fill="currentColor" opacity="1.000000" stroke="none" 
	d="
M356.602173,65.026550 
	C355.583679,64.911888 355.024567,64.794167 354.062561,64.519394 
	C355.212128,63.606495 356.754364,62.220886 358.318634,62.195595 
	C369.601288,62.013187 380.889771,62.017345 392.172546,62.201302 
	C394.009003,62.231239 397.836334,61.652905 395.256287,66.052277 
	C393.043365,65.779137 391.165436,65.090332 389.280945,65.071976 
	C378.541962,64.967346 367.801483,65.022591 356.602173,65.026550 
z"/>
<path fill="currentColor" opacity="1.000000" stroke="none" 
	d="
M353.133331,113.053192 
	C353.095245,106.846985 353.033081,100.640793 353.032013,94.434578 
	C353.031616,92.245636 353.373840,90.295441 356.560394,92.261909 
	C356.829712,96.478004 356.915405,100.149292 357.001099,103.820572 
	C356.873657,110.783356 356.878815,110.625404 364.132629,110.861794 
	C367.968842,110.986801 371.783478,111.773376 375.303345,112.634567 
	C368.716492,113.016251 362.434143,113.024635 355.774719,113.009827 
	C354.642853,113.008827 353.888092,113.031006 353.133331,113.053192 
z"/>

<path fill="currentColor" opacity="1.000000" stroke="none" 
	d="
M353.090820,113.506073 
	C353.888092,113.031006 354.642853,113.008827 355.707031,113.446022 
	C355.633179,116.205826 356.423950,117.130386 358.923401,117.056099 
	C364.574554,116.888123 370.234375,117.010353 375.890656,117.014542 
	C374.731659,117.721809 373.608185,118.958641 372.407196,119.039108 
	C368.480591,119.302177 364.520721,119.267059 360.583313,119.107910 
	C357.582550,118.986626 356.825439,120.426430 357.231445,123.773094 
	C357.164703,124.966446 357.094177,125.420586 357.023651,125.874725 
	C355.950623,125.264557 354.877563,124.654388 353.449097,124.028488 
	C353.078491,120.661484 353.063385,117.310219 353.090820,113.506073 
z"/>

<path fill="currentColor" opacity="1.000000" stroke="none" 
	d="
M352.542480,130.098816 
	C354.123444,130.643036 355.349640,131.851776 356.613342,131.892395 
	C362.749969,132.089676 368.896667,131.973907 375.504639,131.943085 
	C374.120697,132.923874 372.317749,134.682602 370.414673,134.798630 
	C364.300751,135.171356 358.149811,134.937271 351.025360,134.937271 
	C351.374573,133.542282 351.789795,131.883606 352.542480,130.098816 
z"/>

<path fill="currentColor" opacity="1.000000" stroke="none" 
	d="
M357.483032,125.938797 
	C357.094177,125.420586 357.164703,124.966446 357.305359,124.174500 
	C361.689636,123.870094 366.009674,123.785995 370.314819,124.000771 
	C371.816467,124.075676 373.281342,124.888084 374.872375,125.755173 
	C369.301971,126.098732 363.622162,126.050797 357.483032,125.938797 
z"/>
<path fill="currentColor" opacity="1.000000" stroke="none" 
	d="
M377.688171,103.834473 
	C382.678528,103.848061 387.340424,103.920639 392.459473,103.998611 
	C391.902283,104.696861 390.913422,105.939537 389.869110,105.987999 
	C385.188446,106.205231 380.491943,106.082565 375.801178,106.082565 
	C375.774475,105.634605 375.747772,105.186638 375.721100,104.738678 
	C376.267303,104.456940 376.813507,104.175209 377.688171,103.834473 
z"/>

<path fill="currentColor" opacity="1.000000" stroke="none" 
	d="
M100.030640,146.166290 
	C106.233986,139.588608 112.718864,133.342667 118.989738,126.888786 
	C122.458229,123.319069 125.682961,122.982628 129.007950,126.435097 
	C135.028091,132.686050 141.029434,138.955078 147.122345,145.568665 
	C146.322540,145.871750 145.100311,146.183258 144.606613,145.719376 
	C137.860107,139.380463 131.214294,132.934372 123.915581,125.910179 
	C117.466072,132.344528 111.257805,138.681686 104.840538,144.799652 
	C103.765884,145.824158 101.784966,145.898071 100.030640,146.166290 
z"/>
<path fill="currentColor" opacity="1.000000" stroke="none" 
	d="
M55.060749,121.850273 
	C57.487213,118.863174 59.913681,115.876083 62.948837,112.756317 
	C64.347672,112.475449 65.137817,112.327240 65.927963,112.179039 
	C64.490997,114.076584 62.857677,115.861069 61.679245,117.907494 
	C60.738026,119.541977 60.350655,121.495399 59.474758,123.694336 
	C58.483395,124.063995 57.734722,124.046577 56.986053,124.029160 
	C56.986053,124.029160 57.003139,123.999283 56.901154,123.714539 
	C56.219696,122.903282 55.640224,122.376778 55.060749,121.850273 
z"/>
<path fill="currentColor" opacity="1.000000" stroke="none" 
	d="
M74.878609,103.164223 
	C72.163979,105.743523 69.449348,108.322823 66.343155,110.693115 
	C65.916718,110.315575 65.881851,110.147049 65.846992,109.978516 
	C68.375412,107.614990 70.903824,105.251465 73.932648,102.961174 
	C74.433052,103.034409 74.878609,103.164223 74.878609,103.164223 
z"/>
<path fill="currentColor" opacity="1.000000" stroke="none" 
	d="
M84.860870,149.679962 
	C84.517296,150.597122 84.030151,151.181946 83.267944,151.856979 
	C82.141479,150.565475 81.420471,149.078522 80.409386,147.825668 
	C78.713997,145.724838 76.833794,143.773148 75.014008,141.380737 
	C74.996658,141.002792 75.036011,140.961380 75.036011,140.961380 
	C78.252251,143.769318 84.086044,143.555511 84.860870,149.679962 
z"/>
<path fill="currentColor" opacity="1.000000" stroke="none" 
	d="
M64.036049,129.961365 
	C67.649826,133.407349 71.263611,136.853348 74.956703,140.630356 
	C75.036011,140.961380 74.996658,141.002792 74.976120,141.023773 
	C71.313812,137.614609 67.672028,134.184494 64.013451,130.378571 
	C63.996658,130.002777 64.036049,129.961365 64.036049,129.961365 
z"/>
<path fill="currentColor" opacity="1.000000" stroke="none" 
	d="
M95.883713,100.970917 
	C93.038719,104.345581 89.904602,107.684380 86.396683,111.046837 
	C89.213440,107.692009 92.404007,104.313522 95.883713,100.970917 
z"/>
<path fill="currentColor" opacity="1.000000" stroke="none" 
	d="
M115.897568,109.778839 
	C111.532379,108.844040 108.658768,105.787102 106.490761,101.455460 
	C109.558548,103.854927 112.688438,106.652550 115.897568,109.778839 
z"/>
<path fill="currentColor" opacity="1.000000" stroke="none" 
	d="
M57.087662,124.346802 
	C57.734722,124.046577 58.483395,124.063995 59.601631,124.018608 
	C61.275280,125.741570 62.579361,127.527336 63.959743,129.637238 
	C64.036049,129.961365 63.996658,130.002777 63.976109,130.023773 
	C61.700130,128.251328 59.444698,126.457878 57.087662,124.346802 
z"/>
<path fill="currentColor" opacity="1.000000" stroke="none" 
	d="
M75.047340,102.889633 
	C74.878609,103.164223 74.433052,103.034409 74.209396,102.971741 
	C74.515625,101.586067 75.045517,100.263062 75.575417,98.940063 
	C76.063339,99.175529 76.551262,99.410995 77.039177,99.646469 
	C76.431480,100.635994 75.823776,101.625511 75.047340,102.889633 
z"/>
<path fill="currentColor" opacity="1.000000" stroke="none" 
	d="
M65.533829,110.008827 
	C65.881851,110.147049 65.916718,110.315575 65.976089,110.741043 
	C65.992249,111.194801 65.983887,111.391609 65.951744,111.883728 
	C65.137817,112.327240 64.347672,112.475449 63.255329,112.590103 
	C63.708977,111.717407 64.464821,110.878273 65.533829,110.008827 
z"/>
<path fill="currentColor" opacity="1.000000" stroke="none" 
	d="
M76.911194,151.596252 
	C76.388092,151.449707 75.770538,151.023560 75.065140,150.304871 
	C75.590439,150.447113 76.203583,150.881882 76.911194,151.596252 
z"/>
<path fill="currentColor" opacity="1.000000" stroke="none" 
	d="
M55.122238,122.158432 
	C55.640224,122.376778 56.219696,122.903282 56.885674,123.721817 
	C56.376026,123.498108 55.779877,122.982353 55.122238,122.158432 
z"/>
<path fill="currentColor" opacity="1.000000" stroke="none" 
	d="
M85.856491,111.010780 
	C85.606613,111.285172 85.137756,111.564941 84.385468,111.904816 
	C84.613869,111.648666 85.125694,111.332413 85.856491,111.010780 
z"/>

<path fill="currentColor" opacity="1.000000" stroke="none" 
	d="
M266.657593,65.163803 
	C265.666992,70.035065 262.181671,72.948082 257.367126,75.061409 
	C260.117981,71.861427 263.229126,68.553429 266.657593,65.163803 
z"/>
<path fill="currentColor" opacity="1.000000" stroke="none" 
	d="
M140.831726,101.968903 
	C139.017517,104.369125 136.897339,106.711700 134.398407,109.125092 
	C133.975601,108.981575 133.931564,108.767235 133.823578,108.230530 
	C135.605942,105.958221 137.452271,104.008286 139.606735,101.924339 
	C140.118515,101.830643 140.322128,101.870949 140.831726,101.968903 
z"/>
<path fill="currentColor" opacity="1.000000" stroke="none" 
	d="
M460.044373,132.027649 
	C459.173584,132.934647 457.903992,134.755478 457.505035,134.581360 
	C456.183868,134.004761 454.264160,132.762009 454.201263,131.680237 
	C453.865112,125.899643 453.645386,120.055435 454.177338,114.306496 
	C454.423676,111.644348 456.796753,110.148758 459.431488,112.799515 
	C458.770142,113.535240 457.901703,113.910934 457.899200,114.292397 
	C457.866486,119.208847 457.846008,124.132034 458.106995,129.038391 
	C458.161682,130.066254 459.368469,131.032837 460.044373,132.027649 
z"/>
<path fill="currentColor" opacity="1.000000" stroke="none" 
	d="
M460.116211,131.561829 
	C459.368469,131.032837 458.161682,130.066254 458.106995,129.038391 
	C457.846008,124.132034 457.866486,119.208847 457.899200,114.292397 
	C457.901703,113.910934 458.770142,113.535240 459.552063,113.108887 
	C459.974701,119.072601 460.081390,125.084305 460.116211,131.561829 
z"/>
</svg>