<svg width="22" height="22" viewBox="0 0 22 22" fill="none" xmlns="http://www.w3.org/2000/svg">
<path d="M21.9978 17.8146C21.8848 18.1146 21.8176 18.4381 21.6513 18.7105C21.1132 19.5927 20.2522 20 19.1518 20H5.2966C4.48029 20 3.66451 20 2.8482 20C1.16339 19.9966 0 18.934 0 17.399C0 13.4655 0 9.5318 0 5.59794C0 5.20586 0.0538106 4.82702 0.241072 4.47463C0.751736 3.51061 1.60733 3.01953 2.77018 3.00826C4.30971 2.99355 5.84923 3.00238 7.38876 3.00532C8.24973 3.00532 8.97241 3.293 9.5611 3.87524C10.1875 4.49424 10.8348 5.09608 11.4638 5.71311C11.5869 5.83999 11.7393 5.94056 11.91 6.00766C12.0806 6.07476 12.2655 6.10672 12.4513 6.10127C14.6927 6.09507 16.9348 6.09425 19.1776 6.09882C20.4416 6.09882 21.4587 6.73938 21.852 7.77888C21.9144 7.94405 21.951 8.11754 22 8.28712L21.9978 17.8146ZM10.9989 18.6522C13.7788 18.6522 16.559 18.6522 19.3396 18.6522C20.1392 18.6522 20.5649 18.269 20.5654 17.5426C20.5654 14.5713 20.5654 11.5999 20.5654 8.62823C20.5692 8.50142 20.5559 8.37467 20.5256 8.25085C20.3964 7.79212 19.9789 7.52354 19.4031 7.52354C17.0856 7.52354 14.7682 7.52354 12.4507 7.52354C11.5898 7.52354 10.8682 7.23928 10.2779 6.66636C9.61222 6.02188 8.93851 5.3872 8.27933 4.73929C8.15577 4.61149 8.00278 4.51009 7.83127 4.44232C7.65975 4.37454 7.47393 4.34207 7.28706 4.34721C5.74 4.35407 4.1924 4.34966 2.6448 4.35064C1.86401 4.35064 1.4346 4.74027 1.43406 5.45483C1.43406 9.48345 1.43406 13.5122 1.43406 17.5412C1.42984 17.6681 1.44286 17.795 1.4728 17.919C1.60248 18.3827 2.02598 18.6503 2.61574 18.6508C5.41031 18.6524 8.20471 18.6529 10.9989 18.6522Z" fill="currentColor"/>
</svg>
