<svg width="22" height="22" viewBox="0 0 22 22" fill="none" xmlns="http://www.w3.org/2000/svg">
<g clip-path="url(#clip0_3041_35646)">
<path d="M15.125 8.25C15.125 9.34402 14.6904 10.3932 13.9168 11.1668C13.1432 11.9404 12.094 12.375 11 12.375C9.90598 12.375 8.85677 11.9404 8.08318 11.1668C7.3096 10.3932 6.875 9.34402 6.875 8.25C6.875 7.15598 7.3096 6.10677 8.08318 5.33318C8.85677 4.5596 9.90598 4.125 11 4.125C12.094 4.125 13.1432 4.5596 13.9168 5.33318C14.6904 6.10677 15.125 7.15598 15.125 8.25Z" fill="currentColor"/>
<path fill-rule="evenodd" clip-rule="evenodd" d="M0 11C0 8.08262 1.15893 5.28473 3.22183 3.22183C5.28473 1.15893 8.08262 0 11 0C13.9174 0 16.7153 1.15893 18.7782 3.22183C20.8411 5.28473 22 8.08262 22 11C22 13.9174 20.8411 16.7153 18.7782 18.7782C16.7153 20.8411 13.9174 22 11 22C8.08262 22 5.28473 20.8411 3.22183 18.7782C1.15893 16.7153 0 13.9174 0 11ZM11 1.375C9.18744 1.3751 7.41175 1.887 5.8773 2.85179C4.34285 3.81658 3.11201 5.19504 2.32645 6.82852C1.54089 8.46199 1.23253 10.2841 1.43687 12.0851C1.64121 13.8861 2.34995 15.5928 3.4815 17.0087C4.45775 15.4358 6.60687 13.75 11 13.75C15.3931 13.75 17.5409 15.4344 18.5185 17.0087C19.6501 15.5928 20.3588 13.8861 20.5631 12.0851C20.7675 10.2841 20.4591 8.46199 19.6735 6.82852C18.888 5.19504 17.6571 3.81658 16.1227 2.85179C14.5882 1.887 12.8126 1.3751 11 1.375Z" fill="currentColor"/>
</g>
<defs>
<clipPath id="clip0_3041_35646">
<rect width="22" height="22" fill="white"/>
</clipPath>
</defs>
</svg>
