<svg width="22" height="22" viewBox="0 0 22 22" fill="none" xmlns="http://www.w3.org/2000/svg">
<path d="M4.27858 22C3.86408 21.9248 3.46912 21.7709 3.11653 21.5472C2.76679 21.3153 2.48193 21.0033 2.2874 20.639C2.09288 20.2748 1.99474 19.8696 2.00178 19.4597C2.00178 18.1623 2.00178 16.8664 2.00178 15.572C2.00178 11.8555 2.00178 8.13973 2.00178 4.4247C1.98092 3.88384 2.14405 3.35129 2.46619 2.9086C2.78833 2.46591 3.25172 2.13749 3.78539 1.97364C4.07873 1.89345 4.38142 1.84957 4.6862 1.84304C5.04652 1.82127 5.4091 1.84304 5.79645 1.84304C5.79645 1.44687 5.79645 1.0681 5.79645 0.691516C5.79584 0.57833 5.82442 0.466785 5.87961 0.366952C5.93479 0.267119 6.01483 0.182148 6.1125 0.119713C6.21017 0.0572773 6.3224 0.019347 6.43904 0.00934609C6.55568 -0.000654806 6.67307 0.0175945 6.78059 0.0624369C6.91388 0.111437 7.02771 0.199949 7.10578 0.315296C7.18386 0.430643 7.22216 0.566899 7.21523 0.704576C7.21523 1.0768 7.21523 1.44687 7.21523 1.82998H10.5415C10.5415 1.4251 10.5415 1.03327 10.5415 0.641454C10.5472 0.504666 10.5972 0.37307 10.6845 0.265261C10.7718 0.157452 10.8919 0.078882 11.0279 0.0406612C11.161 -0.00805757 11.3069 -0.013142 11.4432 0.0261927C11.5795 0.0655275 11.6987 0.147099 11.7823 0.258339C11.8799 0.415033 11.9378 0.591805 11.9512 0.774234C11.976 1.11599 11.9512 1.45992 11.9512 1.82126H14.7956V1.26837C14.7956 1.0681 14.7956 0.867838 14.7956 0.667574C14.801 0.501577 14.8695 0.343315 14.9878 0.222905C15.1062 0.102496 15.2662 0.028341 15.4374 0.0145409C15.6133 -0.00589468 15.7905 0.0412972 15.9308 0.145939C16.0711 0.250582 16.1632 0.404299 16.1873 0.573974C16.2278 0.898314 16.2076 1.22701 16.2143 1.56006V1.84956C16.354 1.84956 16.4756 1.84956 16.5972 1.84956C17.0334 1.83883 17.4699 1.85775 17.9034 1.90616C18.4918 2.01052 19.0238 2.31094 19.4069 2.75516C19.7899 3.19939 19.9998 3.75932 20 4.33762C20 9.39935 20 14.4611 20 19.5228C19.9905 20.0996 19.7757 20.6556 19.3918 21.0973C19.0078 21.5389 18.4782 21.8393 17.8921 21.9478C17.8426 21.9586 17.7953 21.9782 17.748 21.9913L4.27858 22ZM5.82572 2.97713C5.42937 2.97713 4.87537 2.99673 4.50829 2.99891C3.69305 2.99891 3.19986 3.47562 3.19986 4.26579C3.19986 9.39719 3.19986 14.5286 3.19986 19.66C3.19636 19.7849 3.2077 19.9098 3.23364 20.0322C3.37777 20.5916 3.85745 20.9247 4.51504 20.9247H17.4192C18.3335 20.9247 18.8132 20.4588 18.8132 19.5751V4.33762C18.8132 4.26361 18.8132 4.1896 18.8132 4.11994C18.812 3.87762 18.7272 3.64261 18.5721 3.45216C18.4171 3.26171 18.2008 3.12672 17.9574 3.06857C17.3854 3.00741 16.8101 2.97833 16.2346 2.98149C16.2346 3.24488 16.2346 3.4495 16.2346 3.65412C16.2346 4.08948 16.0364 4.35287 15.6356 4.41599C15.2347 4.47912 14.8676 4.059 14.8609 3.62146C14.8609 3.40379 14.8609 3.19917 14.8609 2.98149C13.8722 2.98149 12.9714 3.01633 11.9895 3.01633C11.9895 3.234 11.9895 3.42338 11.9895 3.62146C11.9895 4.08512 11.6787 4.41599 11.2554 4.41599C10.832 4.41599 10.5257 4.09165 10.5212 3.62582C10.5212 3.42338 10.5212 3.22094 10.5212 3.01415C9.36366 3.01415 8.38628 3.02939 7.2445 3.02939C7.2445 3.26883 7.2445 3.49522 7.2445 3.7216C7.24863 3.82675 7.22765 3.93141 7.18321 4.02747C7.13877 4.12353 7.07205 4.20841 6.98823 4.27555C6.9044 4.34268 6.8057 4.39027 6.69979 4.41462C6.59388 4.43898 6.4836 4.43945 6.37747 4.41599C5.98111 4.35287 5.83699 4.08294 5.82798 3.67588C5.82122 3.44514 5.82572 3.22746 5.82572 2.97713Z" fill="currentColor"/>
<path d="M10.5817 13.0725H6.50325C6.39768 13.0764 6.29212 13.0646 6.19022 13.0377C6.06457 12.9974 5.95675 12.9172 5.88436 12.81C5.81197 12.7029 5.77928 12.5752 5.79161 12.4478C5.80141 12.3237 5.85293 12.2061 5.93832 12.113C6.0237 12.0198 6.13827 11.9562 6.26453 11.9319C6.33863 11.9174 6.41415 11.9108 6.48974 11.9123H14.6849C15.1826 11.9123 15.4911 12.2758 15.347 12.6807C15.3088 12.7967 15.2325 12.8976 15.1297 12.9679C15.0269 13.0382 14.9031 13.0742 14.7772 13.0703C14.3651 13.0703 13.953 13.0703 13.5431 13.0703L10.5817 13.0725Z" fill="currentColor"/>
<path d="M8.59344 9.40909H6.46077C6.37656 9.4182 6.29131 9.41019 6.21049 9.38558C6.12966 9.36098 6.05505 9.32033 5.99144 9.26622C5.92782 9.21211 5.87661 9.14574 5.84109 9.07138C5.80557 8.99702 5.78652 8.91631 5.78516 8.83441C5.7848 8.75272 5.80212 8.67184 5.83602 8.59701C5.86993 8.52217 5.91965 8.45502 5.98201 8.39987C6.04437 8.34472 6.11798 8.30279 6.19811 8.27679C6.27823 8.25078 6.3631 8.24127 6.44726 8.24886H10.7126C10.7967 8.2409 10.8816 8.25017 10.9618 8.27607C11.042 8.30197 11.1156 8.34391 11.1778 8.39916C11.2401 8.45442 11.2896 8.52173 11.3232 8.59673C11.3567 8.67172 11.3735 8.75272 11.3724 8.83441C11.3718 8.91652 11.3532 8.99756 11.3179 9.07225C11.2826 9.14693 11.2314 9.21359 11.1676 9.26783C11.1039 9.32207 11.029 9.36269 10.9478 9.38703C10.8667 9.41137 10.7812 9.41889 10.6968 9.40909H8.59344Z" fill="currentColor"/>
</svg>
