<svg width="22" height="22" viewBox="0 0 22 22" fill="none" xmlns="http://www.w3.org/2000/svg">
<g clip-path="url(#clip0_3041_35639)">
<path d="M22 15.3227C21.8553 15.6925 21.5717 15.82 21.1755 15.8172C19.7223 15.8078 18.2685 15.8133 16.8154 15.8133H16.5237V16.0879C16.5237 16.4983 16.5277 16.9088 16.5237 17.3197C16.5174 17.7597 16.263 18.0003 15.81 18.0008C12.6024 18.0008 9.39456 18.0008 6.18655 18.0008C5.73756 18.0008 5.48723 17.7552 5.48378 17.3125C5.48033 16.9015 5.47344 16.4911 5.48378 16.0807C5.4901 15.8941 5.44129 15.8323 5.23746 15.834C3.73375 15.8423 2.23003 15.8395 0.726311 15.8379C0.33818 15.8379 0.0987545 15.6708 0.0137792 15.3595C0.00646763 15.3399 0.00183536 15.3195 0 15.2988C0.0252629 14.7235 -0.0229671 14.1343 0.0924385 13.5763C0.331862 12.4191 1.42563 11.5826 2.6417 11.5604C3.60801 11.5431 4.57489 11.5475 5.5412 11.5604C6.31114 11.5704 6.94846 11.8884 7.44395 12.3873C7.89984 12.2554 8.32356 12.1139 8.75763 12.0137C9.00331 11.9665 9.25369 11.9463 9.50403 11.9535C10.499 11.9474 11.4946 11.9535 12.4897 11.9507C13.1442 11.9507 13.7706 12.0666 14.3551 12.3589C14.4613 12.4146 14.5273 12.4046 14.6129 12.32C15.1802 11.7753 15.8645 11.5119 16.6649 11.5197C17.4957 11.5281 18.3265 11.5197 19.1568 11.5197C20.6151 11.5197 21.6957 12.3951 21.965 13.7857C21.9734 13.8115 21.9847 13.8364 21.9988 13.8598L22 15.3227ZM15.2249 16.7389C15.2249 16.3708 15.2387 16.0227 15.2249 15.6764C15.1595 14.2602 14.0267 13.2104 12.566 13.2071C11.521 13.2071 10.4755 13.1998 9.43054 13.211C9.17325 13.2134 8.91736 13.2481 8.66921 13.314C7.98022 13.4989 7.47037 13.9116 7.1075 14.5063C6.67918 15.2086 6.77793 15.9748 6.78195 16.7389H15.2249ZM15.562 13.1714C15.7974 13.5808 16.0333 13.9667 16.2406 14.3665C16.3112 14.5035 16.3715 14.562 16.5352 14.5609C17.8517 14.5537 19.1683 14.557 20.4848 14.557H20.7053C20.7053 14.3899 20.7116 14.2518 20.7053 14.1115C20.6875 13.7569 20.5321 13.422 20.2702 13.1741C20.0083 12.9261 19.6593 12.7835 19.2934 12.7749C18.3702 12.7644 17.4469 12.7677 16.5243 12.7749C16.1628 12.7798 15.8179 12.9222 15.5637 13.1714H15.562ZM6.41334 13.1714C6.18081 12.948 5.86793 12.8208 5.54062 12.8167C4.57431 12.8084 3.60743 12.7972 2.6417 12.8167C1.75635 12.8368 1.09722 13.73 1.32114 14.5804H2.34773C3.39327 14.5804 4.43824 14.5804 5.48378 14.5765C5.55612 14.5765 5.66578 14.5453 5.69507 14.4946C5.93851 14.0675 6.1676 13.6314 6.41506 13.172L6.41334 13.1714Z" fill="currentColor"/>
<path d="M14.5837 7.43249C14.5845 8.35434 14.2088 9.23897 13.5389 9.8929C12.869 10.5468 11.9594 10.9168 11.009 10.922C9.03274 10.9298 7.41591 9.35601 7.41993 7.42804C7.43252 6.51424 7.81579 5.64205 8.4867 5.00041C9.15762 4.35876 10.0622 3.99934 11.0044 4C11.9466 4.00066 12.8506 4.36135 13.5205 5.00393C14.1905 5.64651 14.5725 6.51924 14.5837 7.43305V7.43249ZM13.2901 7.43249C13.2877 6.99393 13.1515 6.56587 12.8986 6.20232C12.6457 5.83876 12.2874 5.556 11.8691 5.38969C11.4507 5.22338 10.9909 5.18098 10.5476 5.26783C10.1044 5.35468 9.69767 5.5669 9.37866 5.87771C9.05965 6.18853 8.84269 6.58401 8.75514 7.01428C8.66759 7.44455 8.71338 7.89034 8.88672 8.2954C9.06007 8.70046 9.35321 9.04666 9.72917 9.29032C10.1051 9.53398 10.5471 9.66419 10.9992 9.66452C11.3014 9.66549 11.6008 9.60832 11.8801 9.49633C12.1594 9.38433 12.413 9.21973 12.6262 9.01206C12.8395 8.80438 13.0082 8.55775 13.1225 8.28643C13.2369 8.01511 13.2946 7.72449 13.2924 7.43138L13.2901 7.43249Z" fill="currentColor"/>
<path d="M17.9056 5.49805C18.6267 5.49922 19.318 5.77759 19.8279 6.27216C20.3378 6.76674 20.6248 7.43718 20.626 8.13661C20.626 9.6018 19.3984 10.8002 17.8987 10.7947C17.1814 10.7837 16.4974 10.4995 15.9944 10.0033C15.4915 9.5071 15.21 8.83888 15.2109 8.14306C15.2118 7.44724 15.495 6.77971 15.9993 6.28477C16.5035 5.78982 17.1883 5.50722 17.9056 5.49805ZM17.8947 6.75384C17.6106 6.75484 17.3332 6.83758 17.0977 6.99159C16.8621 7.14559 16.6789 7.36393 16.5714 7.61897C16.4638 7.874 16.4367 8.15426 16.4935 8.42425C16.5502 8.69424 16.6883 8.94182 16.8902 9.13564C17.0922 9.32946 17.3488 9.46081 17.6278 9.51305C17.9067 9.56529 18.1954 9.53608 18.4572 9.4291C18.719 9.32213 18.9422 9.14221 19.0985 8.91213C19.2548 8.68205 19.3372 8.41215 19.3353 8.13661C19.3327 7.76814 19.1796 7.41569 18.9096 7.15649C18.6396 6.8973 18.2746 6.75251 17.8947 6.75384Z" fill="currentColor"/>
<path d="M6.79687 8.1355C6.79755 8.6581 6.63835 9.16916 6.33942 9.60396C6.04049 10.0388 5.61526 10.3778 5.11759 10.578C4.61991 10.7783 4.07217 10.8308 3.54369 10.729C3.01521 10.6272 2.52977 10.3755 2.14881 10.006C1.76786 9.63638 1.50852 9.16548 1.40364 8.65287C1.29876 8.14026 1.35305 7.60899 1.55964 7.12632C1.76623 6.64365 2.11582 6.23129 2.56416 5.94144C3.0125 5.65159 3.53943 5.49728 4.07824 5.49805C4.79816 5.50185 5.48746 5.78096 5.99647 6.27478C6.50549 6.76859 6.7931 7.43723 6.79687 8.1355ZM4.07536 6.75329C3.79123 6.75218 3.51315 6.8329 3.27635 6.98521C3.03954 7.13752 2.85467 7.35457 2.74515 7.60887C2.63563 7.86317 2.60638 8.14327 2.66112 8.4137C2.71585 8.68414 2.85211 8.93273 3.05262 9.128C3.25313 9.32326 3.50888 9.45641 3.78747 9.51058C4.06607 9.56476 4.35497 9.53751 4.61759 9.4323C4.88021 9.32709 5.10473 9.14865 5.2627 8.91958C5.42068 8.69051 5.50502 8.42112 5.50502 8.14552C5.50654 7.9627 5.47065 7.7814 5.39943 7.61212C5.3282 7.44284 5.22306 7.28895 5.09009 7.15936C4.95713 7.02977 4.79897 6.92705 4.62479 6.85716C4.45061 6.78726 4.26386 6.75158 4.07536 6.75217V6.75329Z" fill="currentColor"/>
</g>
<defs>
<clipPath id="clip0_3041_35639">
<rect width="22" height="22" fill="white"/>
</clipPath>
</defs>
</svg>
